<?xml version="1.0" encoding="UTF-8"?>
<svg xmlns="http://www.w3.org/2000/svg" xmlns:xlink="http://www.w3.org/1999/xlink" width="37pt" height="25pt" viewBox="0 0 37 25" version="1.1">
<defs>
<clipPath id="clip1">
  <path d="M 0 0 L 13 0 L 13 25 L 0 25 Z M 0 0 "/>
</clipPath>
<clipPath id="clip2">
  <path d="M 3.363281 0 L 33.625 0 C 35.484375 0 36.988281 1.527344 36.988281 3.40625 L 36.988281 21.582031 C 36.988281 23.464844 35.484375 24.992188 33.625 24.992188 L 3.363281 24.992188 C 1.503906 24.992188 0 23.464844 0 21.582031 L 0 3.40625 C 0 1.527344 1.503906 0 3.363281 0 Z M 3.363281 0 "/>
</clipPath>
<clipPath id="clip3">
  <path d="M 24 0 L 37 0 L 37 25 L 24 25 Z M 24 0 "/>
</clipPath>
<clipPath id="clip4">
  <path d="M 3.363281 0 L 33.625 0 C 35.484375 0 36.988281 1.527344 36.988281 3.40625 L 36.988281 21.582031 C 36.988281 23.464844 35.484375 24.992188 33.625 24.992188 L 3.363281 24.992188 C 1.503906 24.992188 0 23.464844 0 21.582031 L 0 3.40625 C 0 1.527344 1.503906 0 3.363281 0 Z M 3.363281 0 "/>
</clipPath>
<clipPath id="clip5">
  <path d="M 13 7 L 24 7 L 24 18 L 13 18 Z M 13 7 "/>
</clipPath>
<clipPath id="clip6">
  <path d="M 3.363281 0 L 33.625 0 C 35.484375 0 36.988281 1.527344 36.988281 3.40625 L 36.988281 21.582031 C 36.988281 23.464844 35.484375 24.992188 33.625 24.992188 L 3.363281 24.992188 C 1.503906 24.992188 0 23.464844 0 21.582031 L 0 3.40625 C 0 1.527344 1.503906 0 3.363281 0 Z M 3.363281 0 "/>
</clipPath>
</defs>
<g id="surface1">
<path style=" stroke:none;fill-rule:evenodd;fill:rgb(92.941176%,33.333333%,39.607843%);fill-opacity:1;" d="M 3.363281 0 L 33.625 0 C 35.484375 0 36.988281 1.527344 36.988281 3.40625 L 36.988281 21.582031 C 36.988281 23.464844 35.484375 24.992188 33.625 24.992188 L 3.363281 24.992188 C 1.503906 24.992188 0 23.464844 0 21.582031 L 0 3.40625 C 0 1.527344 1.503906 0 3.363281 0 Z M 3.363281 0 "/>
<g clip-path="url(#clip1)" clip-rule="nonzero">
<g clip-path="url(#clip2)" clip-rule="evenodd">
<path style=" stroke:none;fill-rule:evenodd;fill:rgb(26.27451%,28.627451%,32.54902%);fill-opacity:1;" d="M 0 0 L 12.152344 0 L 12.152344 24.992188 L 0 24.992188 Z M 0 0 "/>
</g>
</g>
<g clip-path="url(#clip3)" clip-rule="nonzero">
<g clip-path="url(#clip4)" clip-rule="evenodd">
<path style=" stroke:none;fill-rule:evenodd;fill:rgb(34.117647%,65.490196%,38.823529%);fill-opacity:1;" d="M 24.835938 0 L 36.988281 0 L 36.988281 24.992188 L 24.835938 24.992188 Z M 24.835938 0 "/>
</g>
</g>
<g clip-path="url(#clip5)" clip-rule="nonzero">
<g clip-path="url(#clip6)" clip-rule="evenodd">
<path style=" stroke:none;fill-rule:evenodd;fill:rgb(100%,100%,100%);fill-opacity:1;" d="M 21.222656 8.984375 C 21.921875 9.6875 22.355469 10.652344 22.355469 11.71875 C 22.355469 13.855469 20.625 15.585938 18.496094 15.585938 C 16.363281 15.585938 14.636719 13.855469 14.636719 11.71875 C 14.636719 10.652344 15.066406 9.6875 15.765625 8.984375 L 14.757812 7.976562 C 13.800781 8.933594 13.210938 10.257812 13.210938 11.71875 C 13.210938 14.644531 15.574219 17.015625 18.496094 17.015625 C 21.414062 17.015625 23.78125 14.644531 23.78125 11.71875 C 23.78125 10.257812 23.1875 8.933594 22.230469 7.976562 Z M 16.570312 13.652344 L 20.421875 13.652344 L 20.839844 13.996094 L 16.148438 13.996094 Z M 15.121094 12.917969 C 15.128906 12.859375 15.125 12.796875 15.125 12.734375 C 15.121094 12.726562 15.117188 12.714844 15.113281 12.707031 L 15.121094 12.714844 C 15.121094 12.671875 15.121094 12.628906 15.121094 12.585938 C 15.121094 12.425781 15.214844 12.179688 15.34375 12.085938 C 15.347656 12.082031 15.351562 12.082031 15.355469 12.078125 C 15.355469 12.074219 15.355469 12.070312 15.355469 12.066406 L 15.359375 12.074219 C 15.574219 11.914062 15.671875 11.714844 15.734375 11.699219 L 15.707031 11.652344 C 15.695312 11.65625 15.683594 11.65625 15.671875 11.65625 C 15.609375 11.65625 15.558594 11.605469 15.5625 11.539062 C 15.5625 11.472656 15.613281 11.421875 15.675781 11.421875 C 15.738281 11.421875 15.789062 11.472656 15.789062 11.539062 C 15.789062 11.570312 15.777344 11.597656 15.757812 11.617188 L 16.71875 13.292969 L 16.667969 13.328125 L 16.101562 12.339844 C 16.039062 12.394531 15.871094 12.476562 15.792969 12.5625 C 15.78125 12.570312 15.773438 12.582031 15.765625 12.59375 C 15.765625 12.597656 15.765625 12.597656 15.769531 12.601562 L 15.761719 12.597656 C 15.652344 12.75 15.667969 12.941406 15.621094 13.101562 C 15.617188 13.113281 15.613281 13.125 15.609375 13.136719 C 15.609375 13.136719 15.613281 13.140625 15.613281 13.144531 L 15.609375 13.140625 C 15.5625 13.3125 15.511719 13.617188 15.449219 13.5625 C 15.375 13.488281 15.214844 13.273438 15.09375 13.175781 C 15.046875 13.136719 15.113281 12.988281 15.121094 12.917969 Z M 21.792969 12.917969 C 21.785156 12.859375 21.785156 12.796875 21.789062 12.734375 C 21.792969 12.726562 21.792969 12.714844 21.796875 12.707031 L 21.789062 12.714844 C 21.792969 12.671875 21.792969 12.628906 21.792969 12.585938 C 21.789062 12.425781 21.699219 12.179688 21.566406 12.085938 C 21.5625 12.082031 21.5625 12.082031 21.558594 12.078125 C 21.558594 12.074219 21.558594 12.070312 21.558594 12.066406 L 21.550781 12.074219 C 21.335938 11.914062 21.242188 11.714844 21.179688 11.699219 L 21.207031 11.652344 C 21.214844 11.65625 21.226562 11.65625 21.238281 11.65625 C 21.300781 11.65625 21.351562 11.605469 21.351562 11.539062 C 21.351562 11.472656 21.300781 11.421875 21.238281 11.421875 C 21.175781 11.421875 21.125 11.472656 21.125 11.539062 C 21.125 11.570312 21.136719 11.597656 21.152344 11.617188 L 20.195312 13.292969 L 20.246094 13.328125 L 20.8125 12.339844 C 20.871094 12.394531 21.042969 12.476562 21.121094 12.5625 C 21.128906 12.570312 21.140625 12.582031 21.148438 12.59375 C 21.148438 12.597656 21.144531 12.597656 21.144531 12.601562 L 21.148438 12.597656 C 21.261719 12.75 21.246094 12.941406 21.292969 13.101562 C 21.296875 13.113281 21.300781 13.125 21.304688 13.136719 C 21.300781 13.136719 21.300781 13.140625 21.296875 13.144531 L 21.304688 13.140625 C 21.347656 13.3125 21.402344 13.617188 21.460938 13.5625 C 21.535156 13.488281 21.695312 13.273438 21.820312 13.175781 C 21.867188 13.136719 21.796875 12.988281 21.792969 12.917969 Z M 19.609375 10.96875 L 20.007812 10.96875 L 20.007812 13.503906 L 19.609375 13.503906 Z M 16.984375 10.960938 L 17.382812 10.960938 L 17.382812 13.496094 L 16.984375 13.496094 Z M 17.488281 10.417969 L 17.855469 10.132812 L 19.125 10.136719 L 19.519531 10.414062 L 20.328125 10.421875 L 20.066406 10.703125 L 16.90625 10.699219 L 16.652344 10.417969 Z M 19.609375 9.523438 L 20.007812 9.523438 L 20.007812 10.289062 L 19.609375 10.289062 Z M 16.984375 9.519531 L 17.382812 9.519531 L 17.382812 10.289062 L 16.984375 10.289062 Z M 17.945312 9.984375 L 19.039062 9.984375 C 19.1875 9.90625 19.230469 9.65625 19.230469 9.515625 C 19.230469 9.101562 18.941406 8.90625 18.652344 8.894531 C 18.609375 8.890625 18.558594 8.859375 18.546875 8.816406 C 18.515625 8.730469 18.523438 8.496094 18.492188 8.5 C 18.464844 8.496094 18.472656 8.726562 18.449219 8.8125 C 18.433594 8.851562 18.386719 8.894531 18.339844 8.898438 C 17.980469 8.914062 17.75 9.179688 17.757812 9.515625 C 17.765625 9.738281 17.789062 9.871094 17.945312 9.984375 Z M 19.609375 9.351562 L 20.007812 9.351562 L 20.007812 9.441406 L 19.609375 9.441406 Z M 16.984375 9.347656 L 17.382812 9.347656 L 17.382812 9.4375 L 16.984375 9.4375 Z M 19.808594 8.9375 C 19.722656 8.941406 19.582031 9.101562 19.585938 9.246094 L 20.027344 9.246094 C 20.046875 9.097656 19.894531 8.933594 19.808594 8.9375 Z M 17.183594 8.933594 C 17.097656 8.9375 16.957031 9.097656 16.960938 9.242188 L 17.402344 9.246094 C 17.421875 9.09375 17.269531 8.929688 17.183594 8.933594 Z M 17.183594 8.933594 "/>
</g>
</g>
</g>
</svg>
