<?xml version="1.0" encoding="UTF-8"?>
<svg xmlns="http://www.w3.org/2000/svg" xmlns:xlink="http://www.w3.org/1999/xlink" width="37pt" height="25pt" viewBox="0 0 37 25" version="1.1">
<defs>
<clipPath id="clip1">
  <path d="M 12 5 L 25 5 L 25 20 L 12 20 Z M 12 5 "/>
</clipPath>
<clipPath id="clip2">
  <path d="M 3.363281 0 L 33.625 0 C 35.484375 0 36.988281 1.527344 36.988281 3.40625 L 36.988281 21.582031 C 36.988281 23.464844 35.484375 24.992188 33.625 24.992188 L 3.363281 24.992188 C 1.503906 24.992188 0 23.464844 0 21.582031 L 0 3.40625 C 0 1.527344 1.503906 0 3.363281 0 Z M 3.363281 0 "/>
</clipPath>
</defs>
<g id="surface1">
<path style=" stroke:none;fill-rule:evenodd;fill:rgb(92.941176%,33.333333%,39.607843%);fill-opacity:1;" d="M 3.363281 0 L 33.625 0 C 35.484375 0 36.988281 1.527344 36.988281 3.40625 L 36.988281 21.582031 C 36.988281 23.464844 35.484375 24.992188 33.625 24.992188 L 3.363281 24.992188 C 1.503906 24.992188 0 23.464844 0 21.582031 L 0 3.40625 C 0 1.527344 1.503906 0 3.363281 0 Z M 3.363281 0 "/>
<g clip-path="url(#clip1)" clip-rule="nonzero">
<g clip-path="url(#clip2)" clip-rule="evenodd">
<path style=" stroke:none;fill-rule:evenodd;fill:rgb(100%,100%,100%);fill-opacity:1;" d="M 18.496094 7.550781 C 18.289062 7.515625 18.285156 7.449219 18.386719 7.300781 C 18.429688 7.238281 18.394531 7.203125 18.253906 7.246094 C 18.148438 7.277344 18.027344 7.125 17.976562 7.054688 C 17.925781 6.992188 17.929688 6.980469 17.988281 6.980469 C 18.046875 6.980469 18.160156 6.925781 18.1875 6.890625 C 18.214844 6.851562 18.210938 6.804688 18.128906 6.820312 C 18.046875 6.835938 17.808594 6.710938 17.71875 6.585938 C 17.675781 6.523438 17.667969 6.492188 17.742188 6.46875 C 17.8125 6.449219 17.886719 6.402344 17.9375 6.363281 C 17.988281 6.324219 17.960938 6.28125 17.867188 6.265625 C 17.769531 6.25 17.5625 6.132812 17.46875 6.015625 C 17.441406 5.976562 17.410156 5.929688 17.5 5.90625 C 17.585938 5.886719 17.800781 5.734375 17.859375 5.648438 C 17.917969 5.566406 17.925781 5.472656 17.753906 5.550781 C 17.585938 5.625 17.25 5.648438 17.054688 5.605469 C 16.636719 5.398438 16.03125 5.132812 15.796875 5.519531 C 15.398438 5.496094 14.925781 5.472656 15.011719 5.984375 C 15.089844 5.976562 15.132812 5.929688 15.160156 5.878906 C 15.195312 5.804688 15.3125 5.789062 15.421875 5.832031 C 15.519531 5.867188 15.597656 5.921875 15.527344 6.011719 C 15.488281 6.054688 15.347656 6.078125 15.257812 6.054688 C 15.171875 6.035156 15.007812 6.007812 14.914062 5.996094 C 14.851562 5.988281 14.722656 5.902344 14.664062 5.785156 C 14.605469 5.667969 14.457031 5.527344 14.363281 5.613281 C 14.265625 5.695312 14.378906 5.835938 14.476562 5.921875 C 14.570312 6.011719 14.765625 6.121094 14.867188 6.121094 C 15 6.121094 15.132812 6.15625 15.203125 6.171875 C 15.234375 6.4375 15.574219 6.558594 15.859375 6.554688 C 16.144531 6.546875 16.523438 6.6875 16.871094 6.988281 C 17.320312 7.375 17.640625 8.652344 16.878906 8.652344 C 16.402344 8.652344 16.476562 8.15625 16.492188 7.875 C 16.503906 7.59375 16.359375 7.289062 16.035156 7.167969 C 15.714844 7.046875 15.054688 6.8125 14.875 6.703125 C 14.800781 6.652344 14.722656 6.839844 14.710938 6.949219 C 14.707031 7.023438 14.621094 7.03125 14.390625 6.957031 C 13.730469 6.742188 13.132812 6.378906 12.847656 5.816406 C 12.5625 5.253906 12.023438 5.804688 12.292969 6.277344 C 12.613281 6.847656 13.6875 7.3125 14.367188 7.402344 C 14.683594 7.445312 14.683594 7.839844 14.382812 7.882812 C 13.761719 7.972656 13.152344 7.960938 12.773438 7.449219 C 12.480469 7.054688 12.195312 7.410156 12.320312 7.722656 C 12.589844 8.394531 13.507812 8.675781 14.40625 8.226562 C 14.617188 8.117188 14.84375 8.136719 14.660156 8.398438 C 14.199219 9.0625 13.585938 9.164062 12.816406 8.675781 C 12.589844 8.53125 12.414062 8.550781 12.363281 8.644531 C 12.273438 8.804688 12.234375 8.949219 12.496094 9.144531 C 13.074219 9.578125 13.742188 9.546875 14.28125 9.257812 C 14.492188 9.144531 14.878906 9.054688 14.535156 9.527344 C 14.191406 9.996094 13.316406 10.242188 12.957031 9.972656 C 12.597656 9.707031 12.152344 9.953125 12.4375 10.363281 C 12.722656 10.773438 13.316406 10.667969 13.585938 10.515625 C 13.855469 10.363281 14.273438 10.15625 14.449219 10.074219 C 14.625 9.988281 14.707031 10.132812 14.507812 10.371094 C 14.0625 10.902344 13.601562 11.347656 12.980469 11.136719 C 12.621094 11.015625 12.292969 11 12.386719 11.457031 C 12.480469 11.914062 13.21875 11.941406 13.585938 11.714844 C 13.953125 11.488281 14.28125 11.230469 14.5 11.007812 C 14.71875 10.789062 14.941406 10.796875 14.699219 11.167969 C 14.148438 12.003906 13.679688 12.617188 12.898438 12.460938 C 12.175781 12.316406 12.355469 12.769531 12.511719 12.910156 C 12.957031 13.3125 13.738281 13.207031 14.675781 12.011719 C 14.75 11.917969 14.871094 11.945312 14.808594 12.117188 C 14.390625 13.234375 13.695312 13.957031 13.023438 13.785156 C 12.671875 13.691406 12.332031 13.894531 12.6875 14.214844 C 13.089844 14.582031 13.820312 14.445312 14.347656 13.835938 C 14.875 13.226562 15.195312 12.792969 15.3125 12.566406 C 15.429688 12.339844 15.605469 12.332031 15.582031 12.628906 C 15.5625 12.925781 15.347656 13.503906 14.976562 13.691406 C 14.78125 13.789062 14.609375 14.011719 14.976562 14.179688 C 15.339844 14.347656 15.773438 13.667969 16.125 12.679688 C 16.164062 12.566406 16.40625 12.535156 16.402344 12.757812 C 16.394531 13.070312 16.25 13.328125 16.089844 13.480469 C 15.925781 13.632812 16.054688 13.886719 16.269531 13.785156 C 16.578125 13.640625 16.773438 13.425781 16.894531 13.105469 C 16.957031 12.933594 17.105469 12.871094 17.023438 13.144531 C 16.777344 13.964844 16.21875 14.359375 15.488281 14.742188 C 15.597656 14.855469 15.695312 14.980469 15.796875 15.082031 C 15.34375 15.324219 14.875 15.484375 14.5 15.640625 C 14.203125 15.4375 13.941406 15.324219 13.808594 15.128906 C 13.765625 14.867188 13.457031 14.753906 13.261719 14.867188 C 12.921875 14.730469 12.679688 14.765625 12.65625 15.09375 C 12.855469 15.0625 13.019531 15.027344 13.160156 15.164062 C 13.226562 15.324219 13.4375 15.402344 13.632812 15.335938 C 13.851562 15.472656 14.039062 15.609375 14.171875 15.699219 C 13.753906 15.6875 13.445312 15.664062 13.226562 15.640625 C 13.019531 15.425781 12.820312 15.425781 12.667969 15.574219 C 12.414062 15.515625 12.21875 15.636719 12.152344 15.867188 C 12.34375 15.84375 12.519531 15.773438 12.640625 15.84375 C 12.746094 16.042969 13.03125 16.050781 13.214844 15.90625 C 13.492188 15.898438 14.03125 15.890625 14.15625 15.890625 C 13.972656 16.003906 13.753906 16.140625 13.644531 16.207031 C 13.214844 16.117188 12.980469 16.292969 13.007812 16.621094 C 12.90625 16.785156 12.914062 17.023438 13.039062 17.128906 C 13.066406 16.992188 13.140625 16.816406 13.242188 16.71875 C 13.503906 16.769531 13.695312 16.679688 13.777344 16.375 C 13.945312 16.261719 14.164062 16.117188 14.25 16.054688 C 14.339844 15.996094 14.410156 15.925781 14.609375 16.019531 C 14.808594 16.109375 14.992188 16.1875 15.109375 16.253906 C 15.171875 16.519531 15.421875 16.535156 15.582031 16.414062 C 15.6875 16.476562 15.773438 16.582031 15.832031 16.695312 C 15.925781 16.519531 15.875 16.285156 15.691406 16.222656 C 15.628906 16.019531 15.394531 15.949219 15.226562 16.050781 C 15.085938 15.988281 14.886719 15.890625 14.800781 15.851562 C 15.085938 15.746094 15.808594 15.464844 16.066406 15.347656 C 16.308594 15.539062 16.578125 15.722656 16.777344 15.667969 C 16.804688 15.488281 16.894531 15.335938 17.015625 15.074219 C 17.210938 14.660156 17.453125 14.273438 17.648438 14.035156 C 17.847656 13.792969 18.046875 13.933594 18.035156 14.261719 C 18 15.0625 17.433594 16.253906 16.601562 16.300781 C 16.316406 16.316406 16.203125 16.375 16.359375 16.597656 C 16.503906 16.800781 16.957031 16.828125 17.210938 16.632812 C 17.464844 16.441406 17.550781 16.453125 17.5 16.710938 C 17.449219 16.96875 17.164062 17.066406 16.949219 17.082031 C 16.644531 17.105469 16.292969 17.21875 16.578125 17.492188 C 16.863281 17.765625 17.332031 17.613281 17.675781 17.203125 C 17.792969 17.0625 17.890625 17.023438 17.878906 17.25 C 17.867188 17.644531 17.640625 17.898438 17.40625 17.949219 C 17.171875 18.003906 16.9375 18.066406 17.003906 18.207031 C 17.113281 18.445312 17.476562 18.480469 17.683594 18.367188 C 17.886719 18.253906 18.105469 18.039062 18.152344 17.910156 C 18.195312 17.78125 18.285156 17.855469 18.261719 18.035156 C 18.210938 18.414062 17.953125 18.40625 17.953125 18.71875 C 17.953125 19.03125 18.203125 19.332031 18.496094 19.675781 C 18.789062 19.332031 19.035156 19.03125 19.035156 18.71875 C 19.035156 18.40625 18.78125 18.414062 18.730469 18.035156 C 18.703125 17.855469 18.792969 17.78125 18.839844 17.910156 C 18.882812 18.039062 19.101562 18.253906 19.308594 18.367188 C 19.511719 18.480469 19.878906 18.445312 19.988281 18.207031 C 20.054688 18.066406 19.820312 18.003906 19.585938 17.949219 C 19.351562 17.898438 19.125 17.644531 19.109375 17.25 C 19.101562 17.023438 19.195312 17.0625 19.3125 17.203125 C 19.65625 17.613281 20.125 17.765625 20.410156 17.492188 C 20.695312 17.21875 20.34375 17.105469 20.039062 17.082031 C 19.828125 17.066406 19.539062 16.96875 19.488281 16.710938 C 19.4375 16.453125 19.527344 16.441406 19.777344 16.632812 C 20.03125 16.828125 20.484375 16.800781 20.632812 16.597656 C 20.789062 16.375 20.675781 16.316406 20.390625 16.300781 C 19.554688 16.253906 18.988281 15.0625 18.957031 14.261719 C 18.941406 13.933594 19.140625 13.792969 19.339844 14.035156 C 19.539062 14.273438 19.777344 14.660156 19.972656 15.074219 C 20.09375 15.335938 20.183594 15.488281 20.214844 15.667969 C 20.410156 15.722656 20.683594 15.539062 20.921875 15.347656 C 21.179688 15.464844 21.902344 15.746094 22.1875 15.851562 C 22.101562 15.890625 21.902344 15.988281 21.765625 16.050781 C 21.597656 15.949219 21.363281 16.019531 21.296875 16.222656 C 21.113281 16.285156 21.0625 16.519531 21.15625 16.695312 C 21.214844 16.582031 21.304688 16.476562 21.40625 16.414062 C 21.566406 16.535156 21.816406 16.519531 21.882812 16.253906 C 22 16.1875 22.183594 16.109375 22.378906 16.019531 C 22.578125 15.925781 22.648438 15.996094 22.738281 16.054688 C 22.824219 16.117188 23.046875 16.261719 23.214844 16.375 C 23.292969 16.679688 23.484375 16.769531 23.746094 16.71875 C 23.851562 16.816406 23.921875 16.992188 23.953125 17.128906 C 24.078125 17.023438 24.082031 16.785156 23.980469 16.621094 C 24.011719 16.292969 23.777344 16.117188 23.34375 16.207031 C 23.234375 16.140625 23.015625 16.003906 22.832031 15.890625 C 22.957031 15.890625 23.5 15.898438 23.777344 15.90625 C 23.960938 16.050781 24.246094 16.042969 24.347656 15.84375 C 24.472656 15.773438 24.648438 15.84375 24.835938 15.867188 C 24.769531 15.636719 24.574219 15.515625 24.320312 15.574219 C 24.167969 15.425781 23.96875 15.425781 23.761719 15.640625 C 23.542969 15.664062 23.234375 15.6875 22.816406 15.699219 C 22.949219 15.609375 23.136719 15.472656 23.355469 15.335938 C 23.554688 15.402344 23.761719 15.324219 23.828125 15.164062 C 23.96875 15.027344 24.136719 15.0625 24.332031 15.09375 C 24.3125 14.765625 24.070312 14.730469 23.730469 14.867188 C 23.53125 14.753906 23.222656 14.867188 23.179688 15.128906 C 23.046875 15.324219 22.785156 15.4375 22.488281 15.640625 C 22.117188 15.484375 21.644531 15.324219 21.195312 15.082031 C 21.292969 14.980469 21.390625 14.855469 21.5 14.742188 C 20.769531 14.359375 20.214844 13.964844 19.964844 13.144531 C 19.882812 12.871094 20.03125 12.933594 20.097656 13.105469 C 20.21875 13.425781 20.410156 13.640625 20.71875 13.785156 C 20.9375 13.886719 21.0625 13.632812 20.902344 13.480469 C 20.742188 13.328125 20.59375 13.070312 20.585938 12.757812 C 20.582031 12.535156 20.824219 12.566406 20.863281 12.679688 C 21.214844 13.667969 21.648438 14.347656 22.011719 14.179688 C 22.378906 14.011719 22.207031 13.789062 22.011719 13.691406 C 21.640625 13.503906 21.429688 12.925781 21.40625 12.628906 C 21.382812 12.332031 21.558594 12.339844 21.675781 12.566406 C 21.792969 12.792969 22.117188 13.226562 22.644531 13.835938 C 23.167969 14.445312 23.902344 14.582031 24.304688 14.214844 C 24.660156 13.894531 24.316406 13.691406 23.964844 13.785156 C 23.292969 13.957031 22.597656 13.234375 22.183594 12.117188 C 22.117188 11.945312 22.242188 11.917969 22.3125 12.011719 C 23.25 13.207031 24.03125 13.3125 24.480469 12.910156 C 24.636719 12.769531 24.816406 12.316406 24.089844 12.460938 C 23.308594 12.617188 22.839844 12.003906 22.292969 11.167969 C 22.046875 10.796875 22.269531 10.789062 22.488281 11.007812 C 22.707031 11.230469 23.039062 11.488281 23.402344 11.714844 C 23.769531 11.941406 24.507812 11.914062 24.601562 11.457031 C 24.699219 11 24.367188 11.015625 24.011719 11.136719 C 23.386719 11.347656 22.929688 10.902344 22.480469 10.371094 C 22.28125 10.132812 22.363281 9.988281 22.539062 10.074219 C 22.714844 10.15625 23.132812 10.363281 23.402344 10.515625 C 23.675781 10.667969 24.265625 10.773438 24.550781 10.363281 C 24.835938 9.953125 24.390625 9.707031 24.03125 9.972656 C 23.675781 10.242188 22.796875 9.996094 22.453125 9.527344 C 22.109375 9.054688 22.496094 9.144531 22.707031 9.257812 C 23.246094 9.546875 23.914062 9.578125 24.492188 9.144531 C 24.753906 8.949219 24.714844 8.804688 24.625 8.644531 C 24.574219 8.550781 24.398438 8.53125 24.171875 8.675781 C 23.402344 9.164062 22.789062 9.0625 22.328125 8.398438 C 22.144531 8.136719 22.371094 8.117188 22.585938 8.226562 C 23.480469 8.675781 24.398438 8.394531 24.667969 7.722656 C 24.796875 7.410156 24.507812 7.054688 24.214844 7.449219 C 23.835938 7.960938 23.226562 7.972656 22.605469 7.882812 C 22.308594 7.839844 22.304688 7.445312 22.621094 7.402344 C 23.300781 7.3125 24.375 6.847656 24.699219 6.277344 C 24.964844 5.804688 24.425781 5.253906 24.140625 5.816406 C 23.855469 6.378906 23.257812 6.742188 22.597656 6.957031 C 22.367188 7.03125 22.285156 7.023438 22.277344 6.949219 C 22.265625 6.839844 22.1875 6.652344 22.117188 6.703125 C 21.933594 6.8125 21.273438 7.046875 20.953125 7.167969 C 20.632812 7.289062 20.484375 7.59375 20.5 7.875 C 20.515625 8.15625 20.585938 8.652344 20.113281 8.652344 C 19.351562 8.652344 19.667969 7.375 20.117188 6.988281 C 20.464844 6.6875 20.84375 6.546875 21.128906 6.554688 C 21.414062 6.558594 21.753906 6.4375 21.785156 6.171875 C 21.855469 6.15625 21.988281 6.121094 22.125 6.121094 C 22.226562 6.121094 22.417969 6.011719 22.515625 5.921875 C 22.609375 5.835938 22.722656 5.695312 22.628906 5.613281 C 22.53125 5.527344 22.382812 5.667969 22.324219 5.785156 C 22.265625 5.902344 22.140625 5.988281 22.074219 5.996094 C 21.980469 6.007812 21.816406 6.035156 21.730469 6.054688 C 21.640625 6.078125 21.5 6.054688 21.464844 6.011719 C 21.390625 5.921875 21.46875 5.867188 21.566406 5.832031 C 21.679688 5.789062 21.796875 5.804688 21.832031 5.878906 C 21.855469 5.929688 21.898438 5.976562 21.976562 5.984375 C 22.066406 5.472656 21.589844 5.496094 21.195312 5.519531 C 20.960938 5.132812 20.351562 5.398438 19.9375 5.605469 C 19.738281 5.648438 19.402344 5.625 19.234375 5.550781 C 19.066406 5.472656 19.074219 5.566406 19.132812 5.648438 C 19.191406 5.734375 19.402344 5.886719 19.488281 5.90625 C 19.578125 5.929688 19.546875 5.976562 19.519531 6.015625 C 19.425781 6.132812 19.21875 6.25 19.125 6.265625 C 19.027344 6.28125 19 6.324219 19.050781 6.363281 C 19.101562 6.402344 19.175781 6.449219 19.25 6.46875 C 19.320312 6.492188 19.3125 6.523438 19.269531 6.585938 C 19.179688 6.710938 18.941406 6.835938 18.859375 6.820312 C 18.78125 6.804688 18.773438 6.851562 18.800781 6.890625 C 18.832031 6.925781 18.941406 6.980469 19 6.980469 C 19.058594 6.980469 19.0625 6.992188 19.015625 7.054688 C 18.960938 7.125 18.839844 7.277344 18.734375 7.246094 C 18.59375 7.203125 18.558594 7.238281 18.601562 7.300781 C 18.707031 7.449219 18.699219 7.515625 18.496094 7.550781 Z M 18.496094 7.550781 "/>
</g>
</g>
</g>
</svg>
