<?xml version="1.0" encoding="UTF-8"?>
<svg xmlns="http://www.w3.org/2000/svg" xmlns:xlink="http://www.w3.org/1999/xlink" width="37pt" height="25pt" viewBox="0 0 37 25" version="1.1">
<defs>
<clipPath id="clip1">
  <path d="M 0 0 L 37 0 L 37 7 L 0 7 Z M 0 0 "/>
</clipPath>
<clipPath id="clip2">
  <path d="M 3.363281 0 L 33.625 0 C 35.484375 0 36.988281 1.527344 36.988281 3.40625 L 36.988281 21.582031 C 36.988281 23.464844 35.484375 24.992188 33.625 24.992188 L 3.363281 24.992188 C 1.503906 24.992188 0 23.464844 0 21.582031 L 0 3.40625 C 0 1.527344 1.503906 0 3.363281 0 Z M 3.363281 0 "/>
</clipPath>
<clipPath id="clip3">
  <path d="M 0 18 L 37 18 L 37 25 L 0 25 Z M 0 18 "/>
</clipPath>
<clipPath id="clip4">
  <path d="M 3.363281 0 L 33.625 0 C 35.484375 0 36.988281 1.527344 36.988281 3.40625 L 36.988281 21.582031 C 36.988281 23.464844 35.484375 24.992188 33.625 24.992188 L 3.363281 24.992188 C 1.503906 24.992188 0 23.464844 0 21.582031 L 0 3.40625 C 0 1.527344 1.503906 0 3.363281 0 Z M 3.363281 0 "/>
</clipPath>
<clipPath id="clip5">
  <path d="M 0 12 L 37 12 L 37 19 L 0 19 Z M 0 12 "/>
</clipPath>
<clipPath id="clip6">
  <path d="M 3.363281 0 L 33.625 0 C 35.484375 0 36.988281 1.527344 36.988281 3.40625 L 36.988281 21.582031 C 36.988281 23.464844 35.484375 24.992188 33.625 24.992188 L 3.363281 24.992188 C 1.503906 24.992188 0 23.464844 0 21.582031 L 0 3.40625 C 0 1.527344 1.503906 0 3.363281 0 Z M 3.363281 0 "/>
</clipPath>
<clipPath id="clip7">
  <path d="M 0 0 L 22 0 L 22 24 L 0 24 Z M 0 0 "/>
</clipPath>
<clipPath id="clip8">
  <path d="M 3.363281 0 L 33.625 0 C 35.484375 0 36.988281 1.527344 36.988281 3.40625 L 36.988281 21.582031 C 36.988281 23.464844 35.484375 24.992188 33.625 24.992188 L 3.363281 24.992188 C 1.503906 24.992188 0 23.464844 0 21.582031 L 0 3.40625 C 0 1.527344 1.503906 0 3.363281 0 Z M 3.363281 0 "/>
</clipPath>
<clipPath id="clip9">
  <path d="M 5 5 L 9 5 L 9 9 L 5 9 Z M 5 5 "/>
</clipPath>
<clipPath id="clip10">
  <path d="M 3.363281 0 L 33.625 0 C 35.484375 0 36.988281 1.527344 36.988281 3.40625 L 36.988281 21.582031 C 36.988281 23.464844 35.484375 24.992188 33.625 24.992188 L 3.363281 24.992188 C 1.503906 24.992188 0 23.464844 0 21.582031 L 0 3.40625 C 0 1.527344 1.503906 0 3.363281 0 Z M 3.363281 0 "/>
</clipPath>
<clipPath id="clip11">
  <path d="M 5 8 L 9 8 L 9 12 L 5 12 Z M 5 8 "/>
</clipPath>
<clipPath id="clip12">
  <path d="M 3.363281 0 L 33.625 0 C 35.484375 0 36.988281 1.527344 36.988281 3.40625 L 36.988281 21.582031 C 36.988281 23.464844 35.484375 24.992188 33.625 24.992188 L 3.363281 24.992188 C 1.503906 24.992188 0 23.464844 0 21.582031 L 0 3.40625 C 0 1.527344 1.503906 0 3.363281 0 Z M 3.363281 0 "/>
</clipPath>
<clipPath id="clip13">
  <path d="M 5 11 L 9 11 L 9 15 L 5 15 Z M 5 11 "/>
</clipPath>
<clipPath id="clip14">
  <path d="M 3.363281 0 L 33.625 0 C 35.484375 0 36.988281 1.527344 36.988281 3.40625 L 36.988281 21.582031 C 36.988281 23.464844 35.484375 24.992188 33.625 24.992188 L 3.363281 24.992188 C 1.503906 24.992188 0 23.464844 0 21.582031 L 0 3.40625 C 0 1.527344 1.503906 0 3.363281 0 Z M 3.363281 0 "/>
</clipPath>
<clipPath id="clip15">
  <path d="M 5 14 L 9 14 L 9 18 L 5 18 Z M 5 14 "/>
</clipPath>
<clipPath id="clip16">
  <path d="M 3.363281 0 L 33.625 0 C 35.484375 0 36.988281 1.527344 36.988281 3.40625 L 36.988281 21.582031 C 36.988281 23.464844 35.484375 24.992188 33.625 24.992188 L 3.363281 24.992188 C 1.503906 24.992188 0 23.464844 0 21.582031 L 0 3.40625 C 0 1.527344 1.503906 0 3.363281 0 Z M 3.363281 0 "/>
</clipPath>
<clipPath id="clip17">
  <path d="M 1 3 L 6 3 L 6 21 L 1 21 Z M 1 3 "/>
</clipPath>
<clipPath id="clip18">
  <path d="M 3.363281 0 L 33.625 0 C 35.484375 0 36.988281 1.527344 36.988281 3.40625 L 36.988281 21.582031 C 36.988281 23.464844 35.484375 24.992188 33.625 24.992188 L 3.363281 24.992188 C 1.503906 24.992188 0 23.464844 0 21.582031 L 0 3.40625 C 0 1.527344 1.503906 0 3.363281 0 Z M 3.363281 0 "/>
</clipPath>
</defs>
<g id="surface1">
<path style=" stroke:none;fill-rule:evenodd;fill:rgb(100%,100%,100%);fill-opacity:1;" d="M 3.363281 0 L 33.625 0 C 35.484375 0 36.988281 1.527344 36.988281 3.40625 L 36.988281 21.582031 C 36.988281 23.464844 35.484375 24.992188 33.625 24.992188 L 3.363281 24.992188 C 1.503906 24.992188 0 23.464844 0 21.582031 L 0 3.40625 C 0 1.527344 1.503906 0 3.363281 0 Z M 3.363281 0 "/>
<g clip-path="url(#clip1)" clip-rule="nonzero">
<g clip-path="url(#clip2)" clip-rule="evenodd">
<path style=" stroke:none;fill-rule:evenodd;fill:rgb(94.509804%,83.529412%,37.254902%);fill-opacity:1;" d="M -0.527344 0 L 36.988281 0 L 36.988281 6.378906 L -0.527344 6.378906 Z M -0.527344 0 "/>
</g>
</g>
<g clip-path="url(#clip3)" clip-rule="nonzero">
<g clip-path="url(#clip4)" clip-rule="evenodd">
<path style=" stroke:none;fill-rule:evenodd;fill:rgb(27.843137%,34.117647%,66.27451%);fill-opacity:1;" d="M 0 18.609375 L 36.988281 18.609375 L 36.988281 24.992188 L 0 24.992188 Z M 0 18.609375 "/>
</g>
</g>
<g clip-path="url(#clip5)" clip-rule="nonzero">
<g clip-path="url(#clip6)" clip-rule="evenodd">
<path style=" stroke:none;fill-rule:evenodd;fill:rgb(92.941176%,33.333333%,39.607843%);fill-opacity:1;" d="M 0 12.230469 L 36.988281 12.230469 L 36.988281 18.609375 L 0 18.609375 Z M 0 12.230469 "/>
</g>
</g>
<g clip-path="url(#clip7)" clip-rule="nonzero">
<g clip-path="url(#clip8)" clip-rule="evenodd">
<path style=" stroke:none;fill-rule:evenodd;fill:rgb(31.764706%,75.686275%,38.039216%);fill-opacity:1;" d="M 0 -1.0625 L 21.664062 11.699219 L 0 23.929688 Z M 0 -1.0625 "/>
</g>
</g>
<g clip-path="url(#clip9)" clip-rule="nonzero">
<g clip-path="url(#clip10)" clip-rule="evenodd">
<path style=" stroke:none;fill-rule:nonzero;fill:rgb(100%,100%,100%);fill-opacity:1;" d="M 6.441406 7.992188 C 6.320312 8.078125 6.25 8.03125 6.285156 7.878906 L 6.417969 7.324219 C 6.453125 7.175781 6.386719 6.972656 6.277344 6.871094 L 5.878906 6.519531 C 5.769531 6.417969 5.796875 6.332031 5.945312 6.328125 L 6.5 6.3125 C 6.644531 6.308594 6.800781 6.183594 6.84375 6.035156 L 7.015625 5.429688 C 7.058594 5.28125 7.132812 5.28125 7.183594 5.425781 L 7.394531 6.023438 C 7.445312 6.167969 7.605469 6.289062 7.753906 6.289062 L 8.316406 6.296875 C 8.464844 6.296875 8.496094 6.378906 8.382812 6.480469 L 7.953125 6.867188 C 7.84375 6.96875 7.785156 7.171875 7.828125 7.320312 L 7.964844 7.808594 C 8.003906 7.957031 7.933594 8.011719 7.808594 7.933594 L 7.351562 7.640625 C 7.226562 7.558594 7.023438 7.566406 6.902344 7.65625 Z M 6.441406 7.992188 "/>
</g>
</g>
<g clip-path="url(#clip11)" clip-rule="nonzero">
<g clip-path="url(#clip12)" clip-rule="evenodd">
<path style=" stroke:none;fill-rule:nonzero;fill:rgb(100%,100%,100%);fill-opacity:1;" d="M 6.441406 11.160156 C 6.320312 11.25 6.25 11.199219 6.285156 11.050781 L 6.417969 10.496094 C 6.453125 10.34375 6.386719 10.140625 6.277344 10.042969 L 5.878906 9.691406 C 5.769531 9.589844 5.796875 9.503906 5.945312 9.5 L 6.5 9.484375 C 6.644531 9.480469 6.800781 9.355469 6.84375 9.207031 L 7.015625 8.601562 C 7.058594 8.453125 7.132812 8.449219 7.183594 8.59375 L 7.394531 9.195312 C 7.445312 9.339844 7.605469 9.457031 7.753906 9.460938 L 8.316406 9.464844 C 8.464844 9.46875 8.496094 9.550781 8.382812 9.652344 L 7.953125 10.039062 C 7.84375 10.140625 7.785156 10.34375 7.828125 10.492188 L 7.964844 10.980469 C 8.003906 11.128906 7.933594 11.183594 7.808594 11.101562 L 7.351562 10.8125 C 7.226562 10.730469 7.023438 10.738281 6.902344 10.824219 Z M 6.441406 11.160156 "/>
</g>
</g>
<g clip-path="url(#clip13)" clip-rule="nonzero">
<g clip-path="url(#clip14)" clip-rule="evenodd">
<path style=" stroke:none;fill-rule:nonzero;fill:rgb(100%,100%,100%);fill-opacity:1;" d="M 6.441406 14.332031 C 6.320312 14.421875 6.25 14.371094 6.285156 14.222656 L 6.417969 13.664062 C 6.453125 13.515625 6.386719 13.3125 6.277344 13.210938 L 5.878906 12.859375 C 5.769531 12.761719 5.796875 12.675781 5.945312 12.671875 L 6.5 12.65625 C 6.644531 12.648438 6.800781 12.527344 6.84375 12.378906 L 7.015625 11.769531 C 7.058594 11.625 7.132812 11.621094 7.183594 11.765625 L 7.394531 12.363281 C 7.445312 12.507812 7.605469 12.628906 7.753906 12.628906 L 8.316406 12.636719 C 8.464844 12.636719 8.496094 12.722656 8.382812 12.824219 L 7.953125 13.210938 C 7.84375 13.3125 7.785156 13.515625 7.828125 13.660156 L 7.964844 14.152344 C 8.003906 14.296875 7.933594 14.351562 7.808594 14.273438 L 7.351562 13.980469 C 7.226562 13.902344 7.023438 13.90625 6.902344 13.996094 Z M 6.441406 14.332031 "/>
</g>
</g>
<g clip-path="url(#clip15)" clip-rule="nonzero">
<g clip-path="url(#clip16)" clip-rule="evenodd">
<path style=" stroke:none;fill-rule:nonzero;fill:rgb(100%,100%,100%);fill-opacity:1;" d="M 6.441406 17.503906 C 6.320312 17.589844 6.25 17.542969 6.285156 17.390625 L 6.417969 16.835938 C 6.453125 16.6875 6.386719 16.484375 6.277344 16.382812 L 5.878906 16.03125 C 5.769531 15.929688 5.796875 15.84375 5.945312 15.839844 L 6.5 15.824219 C 6.644531 15.820312 6.800781 15.695312 6.84375 15.550781 L 7.015625 14.941406 C 7.058594 14.792969 7.132812 14.792969 7.183594 14.9375 L 7.394531 15.535156 C 7.445312 15.679688 7.605469 15.800781 7.753906 15.800781 L 8.316406 15.808594 C 8.464844 15.808594 8.496094 15.894531 8.382812 15.992188 L 7.953125 16.378906 C 7.84375 16.480469 7.785156 16.683594 7.828125 16.832031 L 7.964844 17.320312 C 8.003906 17.46875 7.933594 17.523438 7.808594 17.445312 L 7.351562 17.152344 C 7.226562 17.070312 7.023438 17.078125 6.902344 17.167969 Z M 6.441406 17.503906 "/>
</g>
</g>
<g clip-path="url(#clip17)" clip-rule="nonzero">
<g clip-path="url(#clip18)" clip-rule="evenodd">
<path style=" stroke:none;fill-rule:nonzero;fill:rgb(100%,100%,100%);fill-opacity:1;" d="M 5.726562 17.648438 C 5.722656 17.652344 5.71875 17.660156 5.714844 17.664062 C 5.617188 17.84375 5.515625 18 5.40625 18.125 C 4.359375 19.332031 3.746094 17.441406 3.378906 13.90625 C 3.308594 13.222656 3.273438 12.527344 3.269531 11.84375 C 3.261719 11.160156 3.28125 10.460938 3.335938 9.765625 C 3.625 6.160156 4.199219 4.042969 5.265625 5.035156 C 5.378906 5.140625 5.484375 5.273438 5.585938 5.433594 C 5.589844 5.4375 5.59375 5.441406 5.597656 5.445312 C 5.632812 5.480469 5.667969 5.40625 5.679688 5.285156 C 5.6875 5.183594 5.675781 5.082031 5.648438 5.027344 C 5.394531 4.347656 5.09375 3.820312 4.761719 3.507812 C 3.417969 2.261719 2.035156 4.921875 1.671875 9.445312 C 1.605469 10.285156 1.578125 11.132812 1.585938 11.960938 C 1.597656 12.789062 1.640625 13.625 1.726562 14.453125 C 2.183594 18.894531 3.617188 21.269531 4.929688 19.75 C 5.257812 19.375 5.546875 18.789062 5.789062 18.054688 C 5.8125 17.996094 5.820312 17.890625 5.8125 17.792969 C 5.800781 17.671875 5.761719 17.609375 5.726562 17.648438 Z M 5.726562 17.648438 "/>
</g>
</g>
</g>
</svg>
