<?xml version="1.0" encoding="UTF-8"?>
<svg xmlns="http://www.w3.org/2000/svg" xmlns:xlink="http://www.w3.org/1999/xlink" width="37pt" height="25pt" viewBox="0 0 37 25" version="1.1">
<defs>
<clipPath id="clip1">
  <path d="M 0 0 L 37 0 L 37 5 L 0 5 Z M 0 0 "/>
</clipPath>
<clipPath id="clip2">
  <path d="M 3.363281 0 L 33.625 0 C 35.484375 0 36.988281 1.527344 36.988281 3.40625 L 36.988281 21.582031 C 36.988281 23.464844 35.484375 24.992188 33.625 24.992188 L 3.363281 24.992188 C 1.503906 24.992188 0 23.464844 0 21.582031 L 0 3.40625 C 0 1.527344 1.503906 0 3.363281 0 Z M 3.363281 0 "/>
</clipPath>
<clipPath id="clip3">
  <path d="M 0 20 L 37 20 L 37 25 L 0 25 Z M 0 20 "/>
</clipPath>
<clipPath id="clip4">
  <path d="M 3.363281 0 L 33.625 0 C 35.484375 0 36.988281 1.527344 36.988281 3.40625 L 36.988281 21.582031 C 36.988281 23.464844 35.484375 24.992188 33.625 24.992188 L 3.363281 24.992188 C 1.503906 24.992188 0 23.464844 0 21.582031 L 0 3.40625 C 0 1.527344 1.503906 0 3.363281 0 Z M 3.363281 0 "/>
</clipPath>
</defs>
<g id="surface1">
<path style=" stroke:none;fill-rule:evenodd;fill:rgb(96.078431%,96.862745%,97.647059%);fill-opacity:1;" d="M 3.363281 0 L 33.625 0 C 35.484375 0 36.988281 1.527344 36.988281 3.40625 L 36.988281 21.582031 C 36.988281 23.464844 35.484375 24.992188 33.625 24.992188 L 3.363281 24.992188 C 1.503906 24.992188 0 23.464844 0 21.582031 L 0 3.40625 C 0 1.527344 1.503906 0 3.363281 0 Z M 3.363281 0 "/>
<g clip-path="url(#clip1)" clip-rule="nonzero">
<g clip-path="url(#clip2)" clip-rule="evenodd">
<path style=" stroke:none;fill-rule:evenodd;fill:rgb(92.941176%,33.333333%,39.607843%);fill-opacity:1;" d="M 0 0 L 36.988281 0 L 36.988281 4.253906 L 0 4.253906 Z M 0 0 "/>
</g>
</g>
<g clip-path="url(#clip3)" clip-rule="nonzero">
<g clip-path="url(#clip4)" clip-rule="evenodd">
<path style=" stroke:none;fill-rule:evenodd;fill:rgb(92.941176%,33.333333%,39.607843%);fill-opacity:1;" d="M 0 20.738281 L 36.988281 20.738281 L 36.988281 24.992188 L 0 24.992188 Z M 0 20.738281 "/>
</g>
</g>
<path style=" stroke:none;fill-rule:evenodd;fill:rgb(92.941176%,33.333333%,39.607843%);fill-opacity:1;" d="M 20.929688 16.550781 C 20.921875 16.554688 20.914062 16.554688 20.910156 16.558594 L 20.90625 16.558594 C 20.6875 16.667969 20.457031 16.757812 20.214844 16.832031 C 17.894531 17.523438 15.484375 16.175781 14.824219 13.820312 C 14.699219 13.363281 14.648438 12.90625 14.664062 12.457031 C 14.667969 12.007812 14.738281 11.550781 14.886719 11.097656 C 15.648438 8.761719 18.121094 7.476562 20.410156 8.230469 C 20.648438 8.3125 20.875 8.410156 21.089844 8.523438 C 21.09375 8.527344 21.101562 8.53125 21.109375 8.53125 C 21.1875 8.558594 21.269531 8.511719 21.296875 8.433594 C 21.316406 8.371094 21.292969 8.300781 21.242188 8.261719 C 20.710938 7.789062 20.078125 7.417969 19.363281 7.179688 C 16.492188 6.234375 13.390625 7.847656 12.429688 10.78125 C 12.253906 11.324219 12.164062 11.878906 12.148438 12.421875 C 12.136719 12.964844 12.203125 13.519531 12.355469 14.070312 C 13.183594 17.027344 16.210938 18.722656 19.125 17.855469 C 19.847656 17.636719 20.496094 17.28125 21.050781 16.824219 C 21.101562 16.785156 21.128906 16.71875 21.113281 16.652344 C 21.089844 16.574219 21.007812 16.527344 20.929688 16.550781 Z M 20.53125 14.71875 C 20.304688 14.867188 20.179688 14.773438 20.25 14.507812 L 20.527344 13.511719 C 20.601562 13.246094 20.5 12.875 20.300781 12.6875 L 19.601562 12.027344 C 19.402344 11.835938 19.460938 11.683594 19.734375 11.6875 L 20.746094 11.695312 C 21.019531 11.695312 21.3125 11.484375 21.398438 11.21875 L 21.753906 10.136719 C 21.84375 9.871094 21.980469 9.875 22.0625 10.136719 L 22.402344 11.230469 C 22.484375 11.496094 22.773438 11.722656 23.046875 11.734375 L 24.078125 11.78125 C 24.347656 11.792969 24.398438 11.949219 24.1875 12.121094 L 23.375 12.792969 C 23.164062 12.964844 23.042969 13.328125 23.109375 13.597656 L 23.328125 14.488281 C 23.394531 14.757812 23.261719 14.851562 23.035156 14.699219 L 22.21875 14.144531 C 21.992188 13.992188 21.621094 13.992188 21.394531 14.140625 Z M 20.53125 14.71875 "/>
</g>
</svg>
