<?xml version="1.0" encoding="UTF-8"?>
<svg xmlns="http://www.w3.org/2000/svg" xmlns:xlink="http://www.w3.org/1999/xlink" width="37pt" height="25pt" viewBox="0 0 37 25" version="1.1">
<defs>
<clipPath id="clip1">
  <path d="M 0 12 L 37 12 L 37 25 L 0 25 Z M 0 12 "/>
</clipPath>
<clipPath id="clip2">
  <path d="M 3.363281 0 L 33.625 0 C 35.484375 0 36.988281 1.527344 36.988281 3.40625 L 36.988281 21.582031 C 36.988281 23.464844 35.484375 24.992188 33.625 24.992188 L 3.363281 24.992188 C 1.503906 24.992188 0 23.464844 0 21.582031 L 0 3.40625 C 0 1.527344 1.503906 0 3.363281 0 Z M 3.363281 0 "/>
</clipPath>
</defs>
<g id="surface1">
<path style=" stroke:none;fill-rule:evenodd;fill:rgb(27.843137%,34.117647%,66.27451%);fill-opacity:1;" d="M 3.363281 0 L 33.625 0 C 35.484375 0 36.988281 1.527344 36.988281 3.40625 L 36.988281 21.582031 C 36.988281 23.464844 35.484375 24.992188 33.625 24.992188 L 3.363281 24.992188 C 1.503906 24.992188 0 23.464844 0 21.582031 L 0 3.40625 C 0 1.527344 1.503906 0 3.363281 0 Z M 3.363281 0 "/>
<g clip-path="url(#clip1)" clip-rule="nonzero">
<g clip-path="url(#clip2)" clip-rule="evenodd">
<path style=" stroke:none;fill-rule:evenodd;fill:rgb(92.941176%,33.333333%,39.607843%);fill-opacity:1;" d="M 0 12.761719 L 36.988281 12.761719 L 36.988281 24.992188 L 0 24.992188 Z M 0 12.761719 "/>
</g>
</g>
<path style=" stroke:none;fill-rule:evenodd;fill:rgb(96.078431%,96.862745%,97.647059%);fill-opacity:1;" d="M 10.570312 7.976562 L 26.421875 7.976562 L 26.421875 18.609375 L 10.570312 18.609375 Z M 10.570312 7.976562 "/>
<path style=" stroke:none;fill-rule:evenodd;fill:rgb(34.117647%,65.490196%,38.823529%);fill-opacity:1;" d="M 19.550781 11.167969 L 24.308594 11.167969 L 24.308594 12.761719 L 19.550781 12.761719 Z M 19.550781 11.167969 "/>
<path style=" stroke:none;fill-rule:evenodd;fill:rgb(34.117647%,65.490196%,38.823529%);fill-opacity:1;" d="M 13.210938 11.167969 L 17.964844 11.167969 L 17.964844 12.761719 L 13.210938 12.761719 Z M 13.210938 11.167969 "/>
<path style=" stroke:none;fill-rule:evenodd;fill:rgb(34.117647%,65.490196%,38.823529%);fill-opacity:1;" d="M 15.324219 9.039062 L 17.964844 9.039062 L 17.964844 10.632812 L 15.324219 10.632812 Z M 15.324219 9.039062 "/>
<path style=" stroke:none;fill-rule:evenodd;fill:rgb(34.117647%,65.490196%,38.823529%);fill-opacity:1;" d="M 19.550781 9.039062 L 22.195312 9.039062 L 22.195312 10.632812 L 19.550781 10.632812 Z M 19.550781 9.039062 "/>
<path style=" stroke:none;fill-rule:evenodd;fill:rgb(34.117647%,65.490196%,38.823529%);fill-opacity:1;" d="M 15.324219 13.292969 L 17.964844 13.292969 L 17.964844 14.886719 L 15.324219 14.886719 Z M 15.324219 13.292969 "/>
<path style=" stroke:none;fill-rule:evenodd;fill:rgb(34.117647%,65.490196%,38.823529%);fill-opacity:1;" d="M 19.550781 13.292969 L 22.195312 13.292969 L 22.195312 14.886719 L 19.550781 14.886719 Z M 19.550781 13.292969 "/>
<path style=" stroke:none;fill-rule:evenodd;fill:rgb(27.843137%,34.117647%,66.27451%);fill-opacity:1;" d="M 18.496094 18.078125 L 25.363281 14.355469 L 25.363281 18.609375 L 18.496094 18.609375 Z M 18.496094 18.078125 "/>
<path style=" stroke:none;fill-rule:evenodd;fill:rgb(27.843137%,34.117647%,66.27451%);fill-opacity:1;" d="M 19.023438 18.078125 L 12.152344 14.355469 L 12.152344 18.609375 L 19.023438 18.609375 Z M 19.023438 18.078125 "/>
<path style=" stroke:none;fill-rule:evenodd;fill:rgb(34.117647%,65.490196%,38.823529%);fill-opacity:1;" d="M 17.964844 9.039062 L 19.550781 9.039062 L 19.550781 18.609375 L 17.964844 18.609375 Z M 17.964844 9.039062 "/>
</g>
</svg>
