<?xml version="1.0" encoding="UTF-8"?>
<svg xmlns="http://www.w3.org/2000/svg" xmlns:xlink="http://www.w3.org/1999/xlink" width="37pt" height="25pt" viewBox="0 0 37 25" version="1.1">
<defs>
<clipPath id="clip1">
  <path d="M 0 0 L 37 0 L 37 9 L 0 9 Z M 0 0 "/>
</clipPath>
<clipPath id="clip2">
  <path d="M 3.363281 0 L 33.625 0 C 35.484375 0 36.988281 1.527344 36.988281 3.40625 L 36.988281 21.582031 C 36.988281 23.464844 35.484375 24.992188 33.625 24.992188 L 3.363281 24.992188 C 1.503906 24.992188 0 23.464844 0 21.582031 L 0 3.40625 C 0 1.527344 1.503906 0 3.363281 0 Z M 3.363281 0 "/>
</clipPath>
<clipPath id="clip3">
  <path d="M 0 17 L 37 17 L 37 25 L 0 25 Z M 0 17 "/>
</clipPath>
<clipPath id="clip4">
  <path d="M 3.363281 0 L 33.625 0 C 35.484375 0 36.988281 1.527344 36.988281 3.40625 L 36.988281 21.582031 C 36.988281 23.464844 35.484375 24.992188 33.625 24.992188 L 3.363281 24.992188 C 1.503906 24.992188 0 23.464844 0 21.582031 L 0 3.40625 C 0 1.527344 1.503906 0 3.363281 0 Z M 3.363281 0 "/>
</clipPath>
</defs>
<g id="surface1">
<path style=" stroke:none;fill-rule:evenodd;fill:rgb(96.078431%,96.862745%,97.647059%);fill-opacity:1;" d="M 3.363281 0 L 33.625 0 C 35.484375 0 36.988281 1.527344 36.988281 3.40625 L 36.988281 21.582031 C 36.988281 23.464844 35.484375 24.992188 33.625 24.992188 L 3.363281 24.992188 C 1.503906 24.992188 0 23.464844 0 21.582031 L 0 3.40625 C 0 1.527344 1.503906 0 3.363281 0 Z M 3.363281 0 "/>
<g clip-path="url(#clip1)" clip-rule="nonzero">
<g clip-path="url(#clip2)" clip-rule="evenodd">
<path style=" stroke:none;fill-rule:evenodd;fill:rgb(98.431373%,42.745098%,31.764706%);fill-opacity:1;" d="M 0 0 L 36.988281 0 L 36.988281 8.507812 L 0 8.507812 Z M 0 0 "/>
</g>
</g>
<g clip-path="url(#clip3)" clip-rule="nonzero">
<g clip-path="url(#clip4)" clip-rule="evenodd">
<path style=" stroke:none;fill-rule:evenodd;fill:rgb(34.117647%,65.490196%,38.823529%);fill-opacity:1;" d="M 0 17.015625 L 36.988281 17.015625 L 36.988281 25.523438 L 0 25.523438 Z M 0 17.015625 "/>
</g>
</g>
<path style=" stroke:none;fill-rule:nonzero;fill:rgb(27.843137%,34.117647%,66.27451%);fill-opacity:1;" d="M 21.617188 12.5625 L 21.414062 12.203125 C 21.347656 12.09375 21.296875 11.898438 21.296875 11.769531 L 21.292969 11.355469 C 21.292969 11.226562 21.203125 11.070312 21.089844 11.007812 L 20.746094 10.808594 C 20.636719 10.746094 20.492188 10.601562 20.429688 10.492188 L 20.230469 10.144531 C 20.167969 10.035156 20.011719 9.941406 19.882812 9.941406 L 19.472656 9.941406 C 19.34375 9.941406 19.152344 9.890625 19.039062 9.828125 L 18.683594 9.621094 C 18.574219 9.558594 18.394531 9.558594 18.28125 9.625 L 17.9375 9.824219 C 17.828125 9.890625 17.636719 9.941406 17.507812 9.941406 L 17.109375 9.941406 C 16.980469 9.941406 16.824219 10.035156 16.761719 10.144531 L 16.558594 10.503906 C 16.492188 10.613281 16.351562 10.757812 16.242188 10.820312 L 15.886719 11.027344 C 15.777344 11.09375 15.6875 11.25 15.6875 11.378906 L 15.6875 11.78125 C 15.691406 11.90625 15.636719 12.105469 15.574219 12.214844 L 15.375 12.5625 C 15.3125 12.671875 15.3125 12.855469 15.375 12.964844 L 15.582031 13.324219 C 15.644531 13.433594 15.695312 13.628906 15.699219 13.757812 L 15.699219 14.171875 C 15.699219 14.296875 15.789062 14.457031 15.902344 14.519531 L 16.246094 14.71875 C 16.355469 14.78125 16.5 14.925781 16.5625 15.035156 L 16.761719 15.382812 C 16.824219 15.492188 16.980469 15.585938 17.109375 15.585938 L 17.519531 15.585938 C 17.648438 15.585938 17.84375 15.636719 17.953125 15.699219 L 18.308594 15.90625 C 18.417969 15.96875 18.601562 15.96875 18.710938 15.902344 L 19.054688 15.703125 C 19.164062 15.636719 19.359375 15.585938 19.484375 15.585938 L 19.882812 15.585938 C 20.011719 15.585938 20.167969 15.492188 20.230469 15.382812 L 20.4375 15.023438 C 20.5 14.914062 20.640625 14.769531 20.75 14.707031 L 21.105469 14.496094 C 21.214844 14.433594 21.304688 14.273438 21.304688 14.148438 L 21.304688 13.746094 C 21.304688 13.617188 21.355469 13.421875 21.417969 13.3125 L 21.617188 12.964844 C 21.679688 12.855469 21.679688 12.671875 21.617188 12.5625 Z M 20.382812 12.886719 L 20.261719 13.09375 C 20.226562 13.164062 20.195312 13.28125 20.195312 13.359375 L 20.195312 13.601562 C 20.195312 13.675781 20.140625 13.773438 20.074219 13.8125 L 19.859375 13.9375 C 19.792969 13.976562 19.707031 14.0625 19.667969 14.128906 L 19.546875 14.347656 C 19.507812 14.414062 19.410156 14.46875 19.335938 14.46875 L 19.09375 14.46875 C 19.015625 14.46875 18.898438 14.5 18.832031 14.539062 L 18.625 14.660156 C 18.558594 14.699219 18.449219 14.703125 18.382812 14.664062 L 18.167969 14.539062 C 18.101562 14.5 17.984375 14.46875 17.90625 14.46875 L 17.65625 14.46875 C 17.582031 14.46875 17.488281 14.414062 17.449219 14.347656 L 17.328125 14.136719 C 17.289062 14.070312 17.203125 13.984375 17.136719 13.945312 L 16.925781 13.824219 C 16.859375 13.785156 16.804688 13.691406 16.804688 13.613281 L 16.804688 13.363281 C 16.804688 13.289062 16.773438 13.167969 16.734375 13.101562 L 16.609375 12.886719 C 16.570312 12.816406 16.570312 12.707031 16.609375 12.640625 L 16.730469 12.433594 C 16.769531 12.363281 16.800781 12.246094 16.800781 12.167969 L 16.796875 11.925781 C 16.796875 11.847656 16.851562 11.753906 16.917969 11.714844 L 17.132812 11.589844 C 17.199219 11.550781 17.285156 11.464844 17.324219 11.394531 L 17.449219 11.179688 C 17.488281 11.113281 17.582031 11.058594 17.65625 11.058594 L 17.898438 11.058594 C 17.976562 11.058594 18.09375 11.027344 18.160156 10.988281 L 18.367188 10.863281 C 18.433594 10.824219 18.542969 10.824219 18.609375 10.863281 L 18.824219 10.988281 C 18.890625 11.027344 19.011719 11.058594 19.085938 11.058594 L 19.335938 11.058594 C 19.410156 11.058594 19.507812 11.113281 19.546875 11.179688 L 19.664062 11.390625 C 19.703125 11.457031 19.789062 11.542969 19.855469 11.582031 L 20.066406 11.703125 C 20.132812 11.738281 20.1875 11.835938 20.1875 11.914062 L 20.1875 12.164062 C 20.1875 12.238281 20.222656 12.359375 20.257812 12.425781 L 20.382812 12.640625 C 20.421875 12.707031 20.421875 12.816406 20.382812 12.886719 Z M 20.382812 12.886719 "/>
</g>
</svg>
