<?xml version="1.0" encoding="UTF-8"?>
<svg xmlns="http://www.w3.org/2000/svg" xmlns:xlink="http://www.w3.org/1999/xlink" width="37pt" height="25pt" viewBox="0 0 37 25" version="1.1">
<g id="surface1">
<path style=" stroke:none;fill-rule:evenodd;fill:rgb(96.078431%,96.862745%,97.647059%);fill-opacity:1;" d="M 3.363281 0 L 33.625 0 C 35.484375 0 36.988281 1.527344 36.988281 3.40625 L 36.988281 21.582031 C 36.988281 23.464844 35.484375 24.992188 33.625 24.992188 L 3.363281 24.992188 C 1.503906 24.992188 0 23.464844 0 21.582031 L 0 3.40625 C 0 1.527344 1.503906 0 3.363281 0 Z M 3.363281 0 "/>
<path style=" stroke:none;fill-rule:evenodd;fill:rgb(92.941176%,33.333333%,39.607843%);fill-opacity:1;" d="M 18.757812 7.445312 C 21.53125 7.445312 23.777344 9.707031 23.777344 12.496094 C 23.777344 15.285156 21.53125 17.546875 18.757812 17.546875 C 15.988281 17.546875 13.738281 15.285156 13.738281 12.496094 C 13.738281 9.707031 15.988281 7.445312 18.757812 7.445312 Z M 18.757812 7.445312 "/>
</g>
</svg>
