<?xml version="1.0" encoding="UTF-8"?>
<svg xmlns="http://www.w3.org/2000/svg" xmlns:xlink="http://www.w3.org/1999/xlink" width="37pt" height="25pt" viewBox="0 0 37 25" version="1.1">
<g id="surface1">
<path style=" stroke:none;fill-rule:evenodd;fill:rgb(23.137255%,68.627451%,85.098039%);fill-opacity:1;" d="M 3.363281 0 L 33.625 0 C 35.484375 0 36.988281 1.527344 36.988281 3.40625 L 36.988281 21.582031 C 36.988281 23.464844 35.484375 24.992188 33.625 24.992188 L 3.363281 24.992188 C 1.503906 24.992188 0 23.464844 0 21.582031 L 0 3.40625 C 0 1.527344 1.503906 0 3.363281 0 Z M 3.363281 0 "/>
<path style=" stroke:none;fill-rule:nonzero;fill:rgb(96.078431%,83.529412%,37.254902%);fill-opacity:1;" d="M 23.644531 14.035156 C 23.644531 13.796875 23.738281 13.441406 23.855469 13.234375 L 24.21875 12.601562 C 24.335938 12.398438 24.335938 12.0625 24.21875 11.859375 L 23.84375 11.203125 C 23.726562 11 23.628906 10.640625 23.628906 10.40625 L 23.625 9.648438 C 23.625 9.414062 23.457031 9.125 23.253906 9.007812 L 22.621094 8.644531 C 22.417969 8.527344 22.15625 8.265625 22.039062 8.0625 L 21.675781 7.425781 C 21.558594 7.222656 21.273438 7.054688 21.039062 7.054688 L 20.285156 7.054688 C 20.050781 7.054688 19.695312 6.960938 19.492188 6.84375 L 18.839844 6.46875 C 18.636719 6.351562 18.304688 6.351562 18.101562 6.472656 L 17.472656 6.839844 C 17.269531 6.957031 16.914062 7.054688 16.679688 7.054688 L 15.949219 7.054688 C 15.71875 7.054688 15.429688 7.222656 15.3125 7.425781 L 14.9375 8.082031 C 14.820312 8.285156 14.558594 8.550781 14.359375 8.667969 L 13.707031 9.046875 C 13.503906 9.167969 13.339844 9.457031 13.34375 9.691406 L 13.34375 10.425781 C 13.347656 10.660156 13.25 11.019531 13.132812 11.222656 L 12.769531 11.859375 C 12.652344 12.0625 12.652344 12.398438 12.769531 12.601562 L 13.144531 13.257812 C 13.261719 13.460938 13.359375 13.820312 13.359375 14.054688 L 13.363281 14.8125 C 13.363281 15.046875 13.53125 15.335938 13.734375 15.449219 L 14.367188 15.816406 C 14.570312 15.933594 14.832031 16.195312 14.949219 16.398438 L 15.3125 17.035156 C 15.429688 17.238281 15.71875 17.402344 15.949219 17.402344 L 16.703125 17.402344 C 16.9375 17.402344 17.292969 17.5 17.496094 17.617188 L 18.152344 17.992188 C 18.351562 18.109375 18.683594 18.109375 18.886719 17.988281 L 19.515625 17.621094 C 19.71875 17.5 20.074219 17.402344 20.308594 17.402344 L 21.039062 17.402344 C 21.273438 17.402344 21.558594 17.238281 21.675781 17.035156 L 22.050781 16.378906 C 22.167969 16.175781 22.429688 15.910156 22.632812 15.792969 L 23.28125 15.410156 C 23.484375 15.292969 23.648438 15.003906 23.648438 14.769531 Z M 23.644531 14.035156 "/>
<path style=" stroke:none;fill-rule:evenodd;fill:rgb(88.235294%,81.960784%,42.745098%);fill-opacity:1;" d="M 3.171875 5.316406 L 6.871094 5.316406 L 6.871094 7.445312 L 3.171875 7.445312 Z M 3.171875 5.316406 "/>
<path style=" stroke:none;fill-rule:evenodd;fill:rgb(88.235294%,81.960784%,42.745098%);fill-opacity:1;" d="M 3.171875 8.507812 L 6.871094 8.507812 L 6.871094 10.632812 L 3.171875 10.632812 Z M 3.171875 8.507812 "/>
<path style=" stroke:none;fill-rule:evenodd;fill:rgb(88.235294%,81.960784%,42.745098%);fill-opacity:1;" d="M 3.171875 11.699219 L 6.871094 11.699219 L 6.871094 13.824219 L 3.171875 13.824219 Z M 3.171875 11.699219 "/>
<path style=" stroke:none;fill-rule:evenodd;fill:rgb(88.235294%,81.960784%,42.745098%);fill-opacity:1;" d="M 3.171875 14.886719 L 6.871094 14.886719 L 6.871094 17.015625 L 3.171875 17.015625 Z M 3.171875 14.886719 "/>
<path style=" stroke:none;fill-rule:evenodd;fill:rgb(88.235294%,81.960784%,42.745098%);fill-opacity:1;" d="M 3.171875 18.078125 L 6.871094 18.078125 L 6.871094 20.207031 L 3.171875 20.207031 Z M 3.171875 18.078125 "/>
</g>
</svg>
