<?xml version="1.0" encoding="UTF-8"?>
<svg xmlns="http://www.w3.org/2000/svg" xmlns:xlink="http://www.w3.org/1999/xlink" width="37pt" height="25pt" viewBox="0 0 37 25" version="1.1">
<defs>
<clipPath id="clip1">
  <path d="M 0 0 L 37 0 L 37 5 L 0 5 Z M 0 0 "/>
</clipPath>
<clipPath id="clip2">
  <path d="M 3.363281 0 L 33.625 0 C 35.484375 0 36.988281 1.527344 36.988281 3.40625 L 36.988281 21.582031 C 36.988281 23.464844 35.484375 24.992188 33.625 24.992188 L 3.363281 24.992188 C 1.503906 24.992188 0 23.464844 0 21.582031 L 0 3.40625 C 0 1.527344 1.503906 0 3.363281 0 Z M 3.363281 0 "/>
</clipPath>
<clipPath id="clip3">
  <path d="M 0 20 L 37 20 L 37 25 L 0 25 Z M 0 20 "/>
</clipPath>
<clipPath id="clip4">
  <path d="M 3.363281 0 L 33.625 0 C 35.484375 0 36.988281 1.527344 36.988281 3.40625 L 36.988281 21.582031 C 36.988281 23.464844 35.484375 24.992188 33.625 24.992188 L 3.363281 24.992188 C 1.503906 24.992188 0 23.464844 0 21.582031 L 0 3.40625 C 0 1.527344 1.503906 0 3.363281 0 Z M 3.363281 0 "/>
</clipPath>
</defs>
<g id="surface1">
<path style=" stroke:none;fill-rule:evenodd;fill:rgb(96.078431%,96.862745%,97.647059%);fill-opacity:1;" d="M 3.363281 0 L 33.625 0 C 35.484375 0 36.988281 1.527344 36.988281 3.40625 L 36.988281 21.582031 C 36.988281 23.464844 35.484375 24.992188 33.625 24.992188 L 3.363281 24.992188 C 1.503906 24.992188 0 23.464844 0 21.582031 L 0 3.40625 C 0 1.527344 1.503906 0 3.363281 0 Z M 3.363281 0 "/>
<g clip-path="url(#clip1)" clip-rule="nonzero">
<g clip-path="url(#clip2)" clip-rule="evenodd">
<path style=" stroke:none;fill-rule:evenodd;fill:rgb(92.941176%,33.333333%,39.607843%);fill-opacity:1;" d="M 0 0 L 36.988281 0 L 36.988281 4.253906 L 0 4.253906 Z M 0 0 "/>
</g>
</g>
<g clip-path="url(#clip3)" clip-rule="nonzero">
<g clip-path="url(#clip4)" clip-rule="evenodd">
<path style=" stroke:none;fill-rule:evenodd;fill:rgb(92.941176%,33.333333%,39.607843%);fill-opacity:1;" d="M 0 20.738281 L 36.988281 20.738281 L 36.988281 24.992188 L 0 24.992188 Z M 0 20.738281 "/>
</g>
</g>
<path style=" stroke:none;fill-rule:evenodd;fill:rgb(96.078431%,96.862745%,97.647059%);fill-opacity:1;" d="M 18.496094 10.632812 C 19.660156 10.632812 20.609375 11.585938 20.609375 12.761719 C 20.609375 13.9375 19.660156 14.886719 18.496094 14.886719 C 17.328125 14.886719 16.382812 13.9375 16.382812 12.761719 C 16.382812 11.585938 17.328125 10.632812 18.496094 10.632812 Z M 18.496094 10.632812 "/>
<path style=" stroke:none;fill-rule:nonzero;fill:rgb(34.117647%,65.490196%,38.823529%);fill-opacity:1;" d="M 22.488281 16.605469 C 22.679688 16.605469 22.761719 16.472656 22.675781 16.304688 L 21.234375 13.621094 C 21.144531 13.457031 21.230469 13.320312 21.421875 13.320312 L 21.757812 13.320312 C 21.949219 13.320312 22.019531 13.195312 21.914062 13.039062 L 20.070312 10.320312 C 19.964844 10.164062 20.035156 10.035156 20.226562 10.035156 L 20.566406 10.035156 C 20.757812 10.035156 20.824219 9.910156 20.710938 9.757812 L 18.726562 7.027344 C 18.617188 6.875 18.433594 6.875 18.320312 7.023438 L 16.269531 9.761719 C 16.15625 9.910156 16.222656 10.035156 16.414062 10.035156 L 16.753906 10.035156 C 16.945312 10.035156 17.015625 10.164062 16.910156 10.320312 L 15.0625 13.039062 C 14.957031 13.195312 15.027344 13.320312 15.222656 13.320312 L 15.558594 13.320312 C 15.75 13.320312 15.835938 13.457031 15.746094 13.621094 L 14.304688 16.304688 C 14.214844 16.472656 14.300781 16.605469 14.492188 16.605469 L 17.585938 16.605469 C 17.777344 16.605469 17.933594 16.757812 17.933594 16.945312 L 17.933594 17.738281 C 17.933594 17.925781 18.089844 18.078125 18.28125 18.078125 L 18.746094 18.078125 C 18.9375 18.078125 19.09375 17.925781 19.09375 17.738281 L 19.09375 16.945312 C 19.09375 16.757812 19.253906 16.605469 19.445312 16.605469 Z M 22.488281 16.605469 "/>
</g>
</svg>
