<?xml version="1.0" encoding="UTF-8"?>
<svg xmlns="http://www.w3.org/2000/svg" xmlns:xlink="http://www.w3.org/1999/xlink" width="37pt" height="25pt" viewBox="0 0 37 25" version="1.1">
<defs>
<clipPath id="clip1">
  <path d="M 0 0 L 37 0 L 37 4 L 0 4 Z M 0 0 "/>
</clipPath>
<clipPath id="clip2">
  <path d="M 3.363281 0 L 33.625 0 C 35.484375 0 36.988281 1.527344 36.988281 3.40625 L 36.988281 21.582031 C 36.988281 23.464844 35.484375 24.992188 33.625 24.992188 L 3.363281 24.992188 C 1.503906 24.992188 0 23.464844 0 21.582031 L 0 3.40625 C 0 1.527344 1.503906 0 3.363281 0 Z M 3.363281 0 "/>
</clipPath>
<clipPath id="clip3">
  <path d="M 0 6 L 37 6 L 37 10 L 0 10 Z M 0 6 "/>
</clipPath>
<clipPath id="clip4">
  <path d="M 3.363281 0 L 33.625 0 C 35.484375 0 36.988281 1.527344 36.988281 3.40625 L 36.988281 21.582031 C 36.988281 23.464844 35.484375 24.992188 33.625 24.992188 L 3.363281 24.992188 C 1.503906 24.992188 0 23.464844 0 21.582031 L 0 3.40625 C 0 1.527344 1.503906 0 3.363281 0 Z M 3.363281 0 "/>
</clipPath>
<clipPath id="clip5">
  <path d="M 0 12 L 37 12 L 37 16 L 0 16 Z M 0 12 "/>
</clipPath>
<clipPath id="clip6">
  <path d="M 3.363281 0 L 33.625 0 C 35.484375 0 36.988281 1.527344 36.988281 3.40625 L 36.988281 21.582031 C 36.988281 23.464844 35.484375 24.992188 33.625 24.992188 L 3.363281 24.992188 C 1.503906 24.992188 0 23.464844 0 21.582031 L 0 3.40625 C 0 1.527344 1.503906 0 3.363281 0 Z M 3.363281 0 "/>
</clipPath>
<clipPath id="clip7">
  <path d="M 0 18 L 37 18 L 37 22 L 0 22 Z M 0 18 "/>
</clipPath>
<clipPath id="clip8">
  <path d="M 3.363281 0 L 33.625 0 C 35.484375 0 36.988281 1.527344 36.988281 3.40625 L 36.988281 21.582031 C 36.988281 23.464844 35.484375 24.992188 33.625 24.992188 L 3.363281 24.992188 C 1.503906 24.992188 0 23.464844 0 21.582031 L 0 3.40625 C 0 1.527344 1.503906 0 3.363281 0 Z M 3.363281 0 "/>
</clipPath>
<clipPath id="clip9">
  <path d="M 0 0 L 16 0 L 16 16 L 0 16 Z M 0 0 "/>
</clipPath>
<clipPath id="clip10">
  <path d="M 3.363281 0 L 33.625 0 C 35.484375 0 36.988281 1.527344 36.988281 3.40625 L 36.988281 21.582031 C 36.988281 23.464844 35.484375 24.992188 33.625 24.992188 L 3.363281 24.992188 C 1.503906 24.992188 0 23.464844 0 21.582031 L 0 3.40625 C 0 1.527344 1.503906 0 3.363281 0 Z M 3.363281 0 "/>
</clipPath>
</defs>
<g id="surface1">
<path style=" stroke:none;fill-rule:evenodd;fill:rgb(96.078431%,96.862745%,97.647059%);fill-opacity:1;" d="M 3.363281 0 L 33.625 0 C 35.484375 0 36.988281 1.527344 36.988281 3.40625 L 36.988281 21.582031 C 36.988281 23.464844 35.484375 24.992188 33.625 24.992188 L 3.363281 24.992188 C 1.503906 24.992188 0 23.464844 0 21.582031 L 0 3.40625 C 0 1.527344 1.503906 0 3.363281 0 Z M 3.363281 0 "/>
<g clip-path="url(#clip1)" clip-rule="nonzero">
<g clip-path="url(#clip2)" clip-rule="evenodd">
<path style=" stroke:none;fill-rule:evenodd;fill:rgb(92.941176%,33.333333%,39.607843%);fill-opacity:1;" d="M 0 -0.00390625 L 36.988281 -0.00390625 L 36.988281 3.191406 L 0 3.191406 Z M 0 -0.00390625 "/>
</g>
</g>
<g clip-path="url(#clip3)" clip-rule="nonzero">
<g clip-path="url(#clip4)" clip-rule="evenodd">
<path style=" stroke:none;fill-rule:evenodd;fill:rgb(92.941176%,33.333333%,39.607843%);fill-opacity:1;" d="M 0 6.378906 L 36.988281 6.378906 L 36.988281 9.570312 L 0 9.570312 Z M 0 6.378906 "/>
</g>
</g>
<g clip-path="url(#clip5)" clip-rule="nonzero">
<g clip-path="url(#clip6)" clip-rule="evenodd">
<path style=" stroke:none;fill-rule:evenodd;fill:rgb(92.941176%,33.333333%,39.607843%);fill-opacity:1;" d="M 0 12.226562 L 36.988281 12.226562 L 36.988281 15.421875 L 0 15.421875 Z M 0 12.226562 "/>
</g>
</g>
<g clip-path="url(#clip7)" clip-rule="nonzero">
<g clip-path="url(#clip8)" clip-rule="evenodd">
<path style=" stroke:none;fill-rule:evenodd;fill:rgb(92.941176%,33.333333%,39.607843%);fill-opacity:1;" d="M 0 18.078125 L 36.988281 18.078125 L 36.988281 21.269531 L 0 21.269531 Z M 0 18.078125 "/>
</g>
</g>
<g clip-path="url(#clip9)" clip-rule="nonzero">
<g clip-path="url(#clip10)" clip-rule="evenodd">
<path style=" stroke:none;fill-rule:evenodd;fill:rgb(27.843137%,34.117647%,66.27451%);fill-opacity:1;" d="M 0 0 L 15.851562 0 L 15.851562 15.421875 L 0 15.421875 Z M 0 0 "/>
</g>
</g>
<path style=" stroke:none;fill-rule:evenodd;fill:rgb(100%,80.392157%,32.54902%);fill-opacity:1;" d="M 10.417969 10.992188 C 10.414062 10.996094 10.40625 10.996094 10.402344 11 C 10.222656 11.085938 10.03125 11.160156 9.832031 11.21875 C 7.914062 11.78125 5.921875 10.6875 5.378906 8.78125 C 5.273438 8.414062 5.230469 8.042969 5.242188 7.679688 C 5.246094 7.3125 5.308594 6.945312 5.429688 6.578125 C 6.058594 4.6875 8.101562 3.648438 9.992188 4.257812 C 10.1875 4.320312 10.375 4.402344 10.550781 4.496094 C 10.558594 4.496094 10.5625 4.5 10.566406 4.5 C 10.632812 4.523438 10.703125 4.488281 10.722656 4.421875 C 10.742188 4.371094 10.722656 4.3125 10.679688 4.285156 C 10.238281 3.902344 9.71875 3.597656 9.128906 3.40625 C 6.753906 2.640625 4.191406 3.945312 3.398438 6.320312 C 3.253906 6.761719 3.175781 7.210938 3.167969 7.652344 C 3.15625 8.089844 3.210938 8.539062 3.339844 8.984375 C 4.019531 11.378906 6.523438 12.75 8.929688 12.046875 C 9.527344 11.871094 10.0625 11.582031 10.519531 11.210938 C 10.5625 11.183594 10.585938 11.128906 10.570312 11.074219 C 10.550781 11.011719 10.484375 10.972656 10.417969 10.992188 Z M 10.851562 6.539062 L 11.101562 5.800781 C 11.175781 5.585938 11.289062 5.585938 11.355469 5.800781 L 11.621094 6.640625 L 11.652344 6.621094 L 12.347656 6.121094 C 12.53125 5.992188 12.636719 6.066406 12.585938 6.285156 L 12.394531 7.105469 L 13.019531 7.132812 C 13.246094 7.144531 13.285156 7.265625 13.109375 7.40625 L 12.636719 7.792969 L 13.203125 8.234375 C 13.378906 8.371094 13.339844 8.5 13.117188 8.515625 L 12.308594 8.582031 C 12.28125 8.585938 12.25 8.589844 12.21875 8.597656 L 12.222656 8.601562 L 12.402344 9.324219 C 12.457031 9.542969 12.347656 9.617188 12.160156 9.496094 L 11.707031 9.191406 L 11.496094 9.8125 C 11.421875 10.023438 11.292969 10.027344 11.210938 9.820312 L 10.894531 9.042969 L 10.875 9.003906 L 10.804688 9.042969 L 10.089844 9.507812 C 9.902344 9.632812 9.800781 9.554688 9.859375 9.339844 L 10.066406 8.613281 L 9.554688 8.570312 C 9.332031 8.550781 9.296875 8.425781 9.472656 8.289062 L 9.949219 7.917969 L 9.902344 7.863281 L 9.324219 7.328125 C 9.160156 7.175781 9.207031 7.054688 9.433594 7.054688 L 10.269531 7.0625 L 10.296875 7.058594 L 10.019531 6.261719 C 9.945312 6.050781 10.039062 5.980469 10.222656 6.105469 Z M 10.851562 6.539062 "/>
</g>
</svg>
