<?xml version="1.0" encoding="UTF-8"?>
<svg xmlns="http://www.w3.org/2000/svg" xmlns:xlink="http://www.w3.org/1999/xlink" width="37pt" height="25pt" viewBox="0 0 37 25" version="1.1">
<g id="surface1">
<path style=" stroke:none;fill-rule:evenodd;fill:rgb(34.117647%,65.490196%,38.823529%);fill-opacity:1;" d="M 3.363281 0 L 33.625 0 C 35.484375 0 36.988281 1.527344 36.988281 3.40625 L 36.988281 21.582031 C 36.988281 23.464844 35.484375 24.992188 33.625 24.992188 L 3.363281 24.992188 C 1.503906 24.992188 0 23.464844 0 21.582031 L 0 3.40625 C 0 1.527344 1.503906 0 3.363281 0 Z M 3.363281 0 "/>
<path style=" stroke:none;fill-rule:evenodd;fill:rgb(96.078431%,83.529412%,37.254902%);fill-opacity:1;" d="M 23.339844 8.835938 C 23.34375 8.847656 23.347656 8.855469 23.351562 8.863281 L 23.347656 8.863281 C 23.492188 9.164062 23.617188 9.476562 23.710938 9.804688 C 24.628906 12.949219 22.839844 16.222656 19.71875 17.113281 C 19.117188 17.285156 18.507812 17.355469 17.914062 17.335938 C 17.316406 17.328125 16.710938 17.230469 16.113281 17.03125 C 13.019531 15.996094 11.316406 12.640625 12.316406 9.539062 C 12.421875 9.21875 12.550781 8.910156 12.703125 8.617188 C 12.707031 8.609375 12.710938 8.601562 12.714844 8.59375 C 12.746094 8.488281 12.691406 8.371094 12.585938 8.335938 C 12.5 8.308594 12.40625 8.339844 12.359375 8.410156 C 11.730469 9.132812 11.238281 9.988281 10.925781 10.957031 C 9.667969 14.851562 11.804688 19.0625 15.695312 20.359375 C 16.417969 20.601562 17.148438 20.726562 17.867188 20.742188 C 18.589844 20.757812 19.324219 20.667969 20.050781 20.460938 C 23.972656 19.34375 26.21875 15.234375 25.066406 11.285156 C 24.777344 10.300781 24.304688 9.421875 23.699219 8.671875 C 23.652344 8.601562 23.5625 8.5625 23.476562 8.589844 C 23.367188 8.617188 23.308594 8.730469 23.339844 8.835938 Z M 20.910156 9.375 C 21.109375 9.683594 20.984375 9.855469 20.632812 9.753906 L 19.316406 9.378906 C 18.960938 9.277344 18.46875 9.417969 18.21875 9.6875 L 17.34375 10.636719 C 17.09375 10.90625 16.894531 10.824219 16.894531 10.457031 L 16.90625 9.082031 C 16.90625 8.714844 16.625 8.316406 16.277344 8.199219 L 14.839844 7.714844 C 14.492188 7.597656 14.492188 7.410156 14.84375 7.296875 L 16.292969 6.835938 C 16.640625 6.722656 16.941406 6.332031 16.957031 5.964844 L 17.019531 4.566406 C 17.039062 4.199219 17.242188 4.132812 17.472656 4.417969 L 18.359375 5.519531 C 18.589844 5.804688 19.070312 5.96875 19.425781 5.878906 L 20.609375 5.582031 C 20.964844 5.492188 21.089844 5.671875 20.886719 5.976562 L 20.152344 7.085938 C 19.949219 7.394531 19.945312 7.898438 20.148438 8.207031 Z M 20.910156 9.375 "/>
</g>
</svg>
