<?xml version="1.0" encoding="UTF-8"?>
<svg xmlns="http://www.w3.org/2000/svg" xmlns:xlink="http://www.w3.org/1999/xlink" width="37pt" height="25pt" viewBox="0 0 37 25" version="1.1">
<defs>
<clipPath id="clip1">
  <path d="M 10 10 L 16 10 L 16 15 L 10 15 Z M 10 10 "/>
</clipPath>
<clipPath id="clip2">
  <path d="M 3.363281 0 L 33.625 0 C 35.484375 0 36.988281 1.527344 36.988281 3.40625 L 36.988281 21.582031 C 36.988281 23.464844 35.484375 24.992188 33.625 24.992188 L 3.363281 24.992188 C 1.503906 24.992188 0 23.464844 0 21.582031 L 0 3.40625 C 0 1.527344 1.503906 0 3.363281 0 Z M 3.363281 0 "/>
</clipPath>
<clipPath id="clip3">
  <path d="M 21 10 L 27 10 L 27 15 L 21 15 Z M 21 10 "/>
</clipPath>
<clipPath id="clip4">
  <path d="M 3.363281 0 L 33.625 0 C 35.484375 0 36.988281 1.527344 36.988281 3.40625 L 36.988281 21.582031 C 36.988281 23.464844 35.484375 24.992188 33.625 24.992188 L 3.363281 24.992188 C 1.503906 24.992188 0 23.464844 0 21.582031 L 0 3.40625 C 0 1.527344 1.503906 0 3.363281 0 Z M 3.363281 0 "/>
</clipPath>
<clipPath id="clip5">
  <path d="M 16 4 L 22 4 L 22 9 L 16 9 Z M 16 4 "/>
</clipPath>
<clipPath id="clip6">
  <path d="M 3.363281 0 L 33.625 0 C 35.484375 0 36.988281 1.527344 36.988281 3.40625 L 36.988281 21.582031 C 36.988281 23.464844 35.484375 24.992188 33.625 24.992188 L 3.363281 24.992188 C 1.503906 24.992188 0 23.464844 0 21.582031 L 0 3.40625 C 0 1.527344 1.503906 0 3.363281 0 Z M 3.363281 0 "/>
</clipPath>
<clipPath id="clip7">
  <path d="M 16 15 L 22 15 L 22 20 L 16 20 Z M 16 15 "/>
</clipPath>
<clipPath id="clip8">
  <path d="M 3.363281 0 L 33.625 0 C 35.484375 0 36.988281 1.527344 36.988281 3.40625 L 36.988281 21.582031 C 36.988281 23.464844 35.484375 24.992188 33.625 24.992188 L 3.363281 24.992188 C 1.503906 24.992188 0 23.464844 0 21.582031 L 0 3.40625 C 0 1.527344 1.503906 0 3.363281 0 Z M 3.363281 0 "/>
</clipPath>
</defs>
<g id="surface1">
<path style=" stroke:none;fill-rule:evenodd;fill:rgb(23.137255%,68.627451%,85.098039%);fill-opacity:1;" d="M 3.363281 0 L 33.625 0 C 35.484375 0 36.988281 1.527344 36.988281 3.40625 L 36.988281 21.582031 C 36.988281 23.464844 35.484375 24.992188 33.625 24.992188 L 3.363281 24.992188 C 1.503906 24.992188 0 23.464844 0 21.582031 L 0 3.40625 C 0 1.527344 1.503906 0 3.363281 0 Z M 3.363281 0 "/>
<g clip-path="url(#clip1)" clip-rule="nonzero">
<g clip-path="url(#clip2)" clip-rule="evenodd">
<path style=" stroke:none;fill-rule:nonzero;fill:rgb(96.078431%,96.862745%,97.647059%);fill-opacity:1;" d="M 14.355469 14.367188 C 14.410156 14.597656 14.292969 14.675781 14.097656 14.542969 L 13.375 14.035156 C 13.179688 13.898438 12.84375 13.878906 12.628906 13.992188 L 11.871094 14.386719 C 11.65625 14.5 11.550781 14.410156 11.636719 14.183594 L 11.957031 13.347656 C 12.042969 13.121094 11.960938 12.820312 11.769531 12.675781 L 10.996094 12.078125 C 10.808594 11.929688 10.855469 11.816406 11.09375 11.820312 L 12.09375 11.84375 C 12.335938 11.851562 12.609375 11.675781 12.703125 11.453125 L 13.0625 10.613281 C 13.15625 10.390625 13.296875 10.394531 13.371094 10.617188 L 13.667969 11.476562 C 13.746094 11.699219 14.003906 11.898438 14.242188 11.921875 L 15.039062 11.988281 C 15.277344 12.007812 15.316406 12.144531 15.121094 12.289062 L 14.414062 12.8125 C 14.21875 12.957031 14.101562 13.261719 14.15625 13.492188 Z M 14.355469 14.367188 "/>
</g>
</g>
<g clip-path="url(#clip3)" clip-rule="nonzero">
<g clip-path="url(#clip4)" clip-rule="evenodd">
<path style=" stroke:none;fill-rule:nonzero;fill:rgb(96.078431%,96.862745%,97.647059%);fill-opacity:1;" d="M 25.453125 14.367188 C 25.507812 14.597656 25.390625 14.675781 25.195312 14.542969 L 24.46875 14.035156 C 24.277344 13.898438 23.941406 13.878906 23.726562 13.992188 L 22.96875 14.386719 C 22.753906 14.5 22.648438 14.410156 22.734375 14.183594 L 23.054688 13.347656 C 23.140625 13.121094 23.054688 12.820312 22.867188 12.675781 L 22.09375 12.078125 C 21.90625 11.929688 21.949219 11.816406 22.191406 11.820312 L 23.191406 11.84375 C 23.429688 11.851562 23.707031 11.675781 23.800781 11.453125 L 24.160156 10.613281 C 24.253906 10.390625 24.390625 10.394531 24.46875 10.617188 L 24.765625 11.476562 C 24.839844 11.699219 25.101562 11.898438 25.339844 11.921875 L 26.136719 11.988281 C 26.375 12.007812 26.410156 12.144531 26.214844 12.289062 L 25.507812 12.8125 C 25.3125 12.957031 25.199219 13.261719 25.25 13.492188 Z M 25.453125 14.367188 "/>
</g>
</g>
<g clip-path="url(#clip5)" clip-rule="nonzero">
<g clip-path="url(#clip6)" clip-rule="evenodd">
<path style=" stroke:none;fill-rule:nonzero;fill:rgb(96.078431%,96.862745%,97.647059%);fill-opacity:1;" d="M 20.167969 8.519531 C 20.222656 8.75 20.105469 8.828125 19.910156 8.691406 L 19.1875 8.1875 C 18.992188 8.050781 18.65625 8.03125 18.441406 8.144531 L 17.683594 8.539062 C 17.46875 8.652344 17.363281 8.558594 17.449219 8.335938 L 17.769531 7.496094 C 17.855469 7.273438 17.773438 6.972656 17.585938 6.824219 L 16.808594 6.226562 C 16.621094 6.082031 16.667969 5.96875 16.90625 5.972656 L 17.90625 5.996094 C 18.148438 6 18.421875 5.824219 18.515625 5.605469 L 18.875 4.761719 C 18.96875 4.542969 19.109375 4.542969 19.183594 4.765625 L 19.480469 5.625 C 19.558594 5.851562 19.816406 6.050781 20.054688 6.070312 L 20.851562 6.140625 C 21.089844 6.160156 21.128906 6.292969 20.933594 6.4375 L 20.226562 6.960938 C 20.03125 7.105469 19.914062 7.414062 19.96875 7.644531 Z M 20.167969 8.519531 "/>
</g>
</g>
<g clip-path="url(#clip7)" clip-rule="nonzero">
<g clip-path="url(#clip8)" clip-rule="evenodd">
<path style=" stroke:none;fill-rule:nonzero;fill:rgb(96.078431%,96.862745%,97.647059%);fill-opacity:1;" d="M 20.167969 19.6875 C 20.222656 19.917969 20.105469 19.996094 19.910156 19.859375 L 19.1875 19.351562 C 18.992188 19.214844 18.65625 19.195312 18.441406 19.308594 L 17.683594 19.703125 C 17.46875 19.816406 17.363281 19.726562 17.449219 19.5 L 17.769531 18.664062 C 17.855469 18.441406 17.773438 18.136719 17.585938 17.992188 L 16.808594 17.394531 C 16.621094 17.25 16.667969 17.132812 16.90625 17.140625 L 17.90625 17.160156 C 18.148438 17.167969 18.421875 16.992188 18.515625 16.769531 L 18.875 15.929688 C 18.96875 15.707031 19.109375 15.710938 19.183594 15.933594 L 19.480469 16.792969 C 19.558594 17.015625 19.816406 17.214844 20.054688 17.238281 L 20.851562 17.304688 C 21.089844 17.324219 21.128906 17.460938 20.933594 17.605469 L 20.226562 18.128906 C 20.03125 18.273438 19.914062 18.578125 19.96875 18.808594 Z M 20.167969 19.6875 "/>
</g>
</g>
</g>
</svg>
