<?xml version="1.0" encoding="UTF-8"?>
<svg xmlns="http://www.w3.org/2000/svg" xmlns:xlink="http://www.w3.org/1999/xlink" width="37pt" height="25pt" viewBox="0 0 37 25" version="1.1">
<defs>
<clipPath id="clip1">
  <path d="M 24 0 L 37 0 L 37 25 L 24 25 Z M 24 0 "/>
</clipPath>
<clipPath id="clip2">
  <path d="M 3.363281 0 L 33.625 0 C 35.484375 0 36.988281 1.527344 36.988281 3.40625 L 36.988281 21.582031 C 36.988281 23.464844 35.484375 24.992188 33.625 24.992188 L 3.363281 24.992188 C 1.503906 24.992188 0 23.464844 0 21.582031 L 0 3.40625 C 0 1.527344 1.503906 0 3.363281 0 Z M 3.363281 0 "/>
</clipPath>
<clipPath id="clip3">
  <path d="M 0 0 L 13 0 L 13 25 L 0 25 Z M 0 0 "/>
</clipPath>
<clipPath id="clip4">
  <path d="M 3.363281 0 L 33.625 0 C 35.484375 0 36.988281 1.527344 36.988281 3.40625 L 36.988281 21.582031 C 36.988281 23.464844 35.484375 24.992188 33.625 24.992188 L 3.363281 24.992188 C 1.503906 24.992188 0 23.464844 0 21.582031 L 0 3.40625 C 0 1.527344 1.503906 0 3.363281 0 Z M 3.363281 0 "/>
</clipPath>
</defs>
<g id="surface1">
<path style=" stroke:none;fill-rule:evenodd;fill:rgb(28.627451%,53.72549%,85.882353%);fill-opacity:1;" d="M 3.363281 0 L 33.625 0 C 35.484375 0 36.988281 1.527344 36.988281 3.40625 L 36.988281 21.582031 C 36.988281 23.464844 35.484375 24.992188 33.625 24.992188 L 3.363281 24.992188 C 1.503906 24.992188 0 23.464844 0 21.582031 L 0 3.40625 C 0 1.527344 1.503906 0 3.363281 0 Z M 3.363281 0 "/>
<g clip-path="url(#clip1)" clip-rule="nonzero">
<g clip-path="url(#clip2)" clip-rule="evenodd">
<path style=" stroke:none;fill-rule:evenodd;fill:rgb(92.941176%,33.333333%,39.607843%);fill-opacity:1;" d="M 24.835938 0 L 37.519531 0 L 37.519531 24.992188 L 24.835938 24.992188 Z M 24.835938 0 "/>
</g>
</g>
<g clip-path="url(#clip3)" clip-rule="nonzero">
<g clip-path="url(#clip4)" clip-rule="evenodd">
<path style=" stroke:none;fill-rule:evenodd;fill:rgb(92.941176%,33.333333%,39.607843%);fill-opacity:1;" d="M -0.527344 0 L 12.152344 0 L 12.152344 24.992188 L -0.527344 24.992188 Z M -0.527344 0 "/>
</g>
</g>
<path style=" stroke:none;fill-rule:evenodd;fill:rgb(96.078431%,73.333333%,25.490196%);fill-opacity:1;" d="M 2.113281 10.632812 L 3.699219 10.632812 L 3.699219 17.546875 L 2.113281 17.546875 Z M 2.113281 10.632812 "/>
<path style=" stroke:none;fill-rule:evenodd;fill:rgb(96.078431%,73.333333%,25.490196%);fill-opacity:1;" d="M 7.925781 10.632812 L 9.511719 10.632812 L 9.511719 17.546875 L 7.925781 17.546875 Z M 7.925781 10.632812 "/>
<path style=" stroke:none;fill-rule:evenodd;fill:rgb(96.078431%,73.333333%,25.490196%);fill-opacity:1;" d="M 5.8125 12.230469 C 6.6875 12.230469 7.398438 12.945312 7.398438 13.824219 C 7.398438 14.707031 6.6875 15.421875 5.8125 15.421875 C 4.9375 15.421875 4.226562 14.707031 4.226562 13.824219 C 4.226562 12.945312 4.9375 12.230469 5.8125 12.230469 Z M 5.8125 12.230469 "/>
<path style=" stroke:none;fill-rule:evenodd;fill:rgb(96.078431%,73.333333%,25.490196%);fill-opacity:1;" d="M 5.8125 6.914062 C 6.6875 6.914062 7.398438 7.625 7.398438 8.507812 C 7.398438 9.390625 6.6875 10.101562 5.8125 10.101562 C 4.9375 10.101562 4.226562 9.390625 4.226562 8.507812 C 4.226562 7.625 4.9375 6.914062 5.8125 6.914062 Z M 5.8125 6.914062 "/>
<path style=" stroke:none;fill-rule:evenodd;fill:rgb(96.078431%,73.333333%,25.490196%);fill-opacity:1;" d="M 5.8125 15.953125 L 7.394531 15.953125 L 5.8125 17.542969 L 4.230469 15.953125 Z M 5.8125 15.953125 "/>
</g>
</svg>
