<?xml version="1.0" encoding="UTF-8"?>
<svg xmlns="http://www.w3.org/2000/svg" xmlns:xlink="http://www.w3.org/1999/xlink" width="37pt" height="25pt" viewBox="0 0 37 25" version="1.1">
<defs>
<clipPath id="clip1">
  <path d="M 0 0 L 15 0 L 15 25 L 0 25 Z M 0 0 "/>
</clipPath>
<clipPath id="clip2">
  <path d="M 3.363281 0 L 33.625 0 C 35.484375 0 36.988281 1.527344 36.988281 3.40625 L 36.988281 21.582031 C 36.988281 23.464844 35.484375 24.992188 33.625 24.992188 L 3.363281 24.992188 C 1.503906 24.992188 0 23.464844 0 21.582031 L 0 3.40625 C 0 1.527344 1.503906 0 3.363281 0 Z M 3.363281 0 "/>
</clipPath>
</defs>
<g id="surface1">
<path style=" stroke:none;fill-rule:evenodd;fill:rgb(96.078431%,96.862745%,97.647059%);fill-opacity:1;" d="M 3.363281 0 L 33.625 0 C 35.484375 0 36.988281 1.527344 36.988281 3.40625 L 36.988281 21.582031 C 36.988281 23.464844 35.484375 24.992188 33.625 24.992188 L 3.363281 24.992188 C 1.503906 24.992188 0 23.464844 0 21.582031 L 0 3.40625 C 0 1.527344 1.503906 0 3.363281 0 Z M 3.363281 0 "/>
<g clip-path="url(#clip1)" clip-rule="nonzero">
<g clip-path="url(#clip2)" clip-rule="evenodd">
<path style=" stroke:none;fill-rule:evenodd;fill:rgb(92.941176%,33.333333%,39.607843%);fill-opacity:1;" d="M 14.265625 13.824219 L 3.171875 13.824219 L 14.265625 24.992188 L 0 24.992188 L 0 -0.53125 Z M 14.265625 13.824219 "/>
</g>
</g>
<path style=" stroke:none;fill-rule:nonzero;fill:rgb(100%,100%,100%);fill-opacity:1;" d="M 6.003906 7.542969 C 6.003906 7.546875 6.003906 7.550781 6.007812 7.554688 C 6.070312 7.664062 6.121094 7.78125 6.164062 7.90625 C 6.578125 9.089844 5.933594 10.382812 4.722656 10.796875 C 4.488281 10.875 4.25 10.914062 4.015625 10.921875 C 3.78125 10.933594 3.542969 10.90625 3.304688 10.84375 C 2.074219 10.519531 1.347656 9.273438 1.6875 8.0625 C 1.722656 7.9375 1.769531 7.816406 1.824219 7.699219 C 1.824219 7.695312 1.828125 7.691406 1.828125 7.691406 C 1.839844 7.648438 1.816406 7.605469 1.773438 7.59375 C 1.738281 7.585938 1.703125 7.601562 1.6875 7.628906 C 1.453125 7.917969 1.273438 8.257812 1.164062 8.636719 C 0.738281 10.15625 1.648438 11.722656 3.195312 12.128906 C 3.484375 12.207031 3.773438 12.238281 4.054688 12.226562 C 4.339844 12.21875 4.625 12.167969 4.910156 12.070312 C 6.429688 11.554688 7.242188 9.929688 6.722656 8.441406 C 6.59375 8.070312 6.390625 7.746094 6.140625 7.472656 C 6.121094 7.445312 6.085938 7.433594 6.050781 7.445312 C 6.011719 7.460938 5.988281 7.503906 6.003906 7.542969 Z M 6.003906 7.542969 "/>
<path style=" stroke:none;fill-rule:evenodd;fill:rgb(100%,100%,100%);fill-opacity:1;" d="M 3.550781 18.964844 L 3.78125 18.222656 C 3.839844 18.035156 3.945312 18.03125 4.011719 18.214844 L 4.253906 18.851562 L 4.761719 18.488281 C 4.921875 18.371094 5.027344 18.429688 4.992188 18.621094 L 4.875 19.316406 L 5.582031 19.324219 C 5.785156 19.328125 5.828125 19.433594 5.671875 19.5625 L 5.207031 19.949219 L 5.699219 20.273438 C 5.875 20.386719 5.847656 20.496094 5.640625 20.515625 L 4.894531 20.589844 L 4.902344 20.632812 L 5.089844 21.253906 C 5.148438 21.441406 5.050781 21.511719 4.878906 21.410156 L 4.375 21.117188 L 4.214844 21.660156 C 4.164062 21.84375 4.042969 21.847656 3.953125 21.671875 L 3.625 21.054688 L 3.621094 21.058594 L 2.984375 21.484375 C 2.816406 21.597656 2.71875 21.535156 2.769531 21.34375 L 2.941406 20.671875 L 2.324219 20.640625 C 2.117188 20.632812 2.074219 20.523438 2.230469 20.402344 L 2.714844 20.023438 L 2.207031 19.609375 C 2.050781 19.480469 2.09375 19.375 2.296875 19.367188 L 2.921875 19.351562 L 2.601562 18.660156 C 2.519531 18.480469 2.597656 18.417969 2.777344 18.519531 L 3.527344 18.949219 Z M 3.550781 18.964844 "/>
<path style=" stroke:none;fill-rule:evenodd;fill:rgb(100%,100%,100%);fill-opacity:1;" d="M 3.550781 8.859375 L 3.78125 8.121094 C 3.839844 7.929688 3.945312 7.929688 4.011719 8.113281 L 4.253906 8.75 L 4.761719 8.382812 C 4.921875 8.269531 5.027344 8.328125 4.992188 8.515625 L 4.875 9.214844 L 5.582031 9.222656 C 5.785156 9.222656 5.828125 9.332031 5.671875 9.460938 L 5.207031 9.847656 L 5.699219 10.167969 C 5.875 10.28125 5.847656 10.394531 5.640625 10.414062 L 4.894531 10.488281 L 4.902344 10.527344 L 5.089844 11.152344 C 5.148438 11.339844 5.050781 11.410156 4.878906 11.308594 L 4.375 11.011719 L 4.214844 11.554688 C 4.164062 11.738281 4.042969 11.746094 3.953125 11.570312 L 3.625 10.953125 L 3.621094 10.957031 L 2.984375 11.382812 C 2.816406 11.496094 2.71875 11.433594 2.769531 11.242188 L 2.941406 10.570312 L 2.324219 10.539062 C 2.117188 10.527344 2.074219 10.421875 2.230469 10.300781 L 2.714844 9.921875 L 2.207031 9.507812 C 2.050781 9.378906 2.09375 9.269531 2.296875 9.265625 L 2.921875 9.25 L 2.601562 8.554688 C 2.519531 8.375 2.597656 8.3125 2.777344 8.417969 L 3.527344 8.847656 Z M 3.550781 8.859375 "/>
</g>
</svg>
