<?xml version="1.0" encoding="UTF-8"?>
<svg xmlns="http://www.w3.org/2000/svg" xmlns:xlink="http://www.w3.org/1999/xlink" width="37pt" height="25pt" viewBox="0 0 37 25" version="1.1">
<defs>
<clipPath id="clip1">
  <path d="M 15 5 L 30 5 L 30 20 L 15 20 Z M 15 5 "/>
</clipPath>
<clipPath id="clip2">
  <path d="M 3.363281 0 L 33.625 0 C 35.484375 0 36.988281 1.527344 36.988281 3.40625 L 36.988281 21.582031 C 36.988281 23.464844 35.484375 24.992188 33.625 24.992188 L 3.363281 24.992188 C 1.503906 24.992188 0 23.464844 0 21.582031 L 0 3.40625 C 0 1.527344 1.503906 0 3.363281 0 Z M 3.363281 0 "/>
</clipPath>
<clipPath id="clip3">
  <path d="M 0 0 L 10 0 L 10 25 L 0 25 Z M 0 0 "/>
</clipPath>
<clipPath id="clip4">
  <path d="M 3.363281 0 L 33.625 0 C 35.484375 0 36.988281 1.527344 36.988281 3.40625 L 36.988281 21.582031 C 36.988281 23.464844 35.484375 24.992188 33.625 24.992188 L 3.363281 24.992188 C 1.503906 24.992188 0 23.464844 0 21.582031 L 0 3.40625 C 0 1.527344 1.503906 0 3.363281 0 Z M 3.363281 0 "/>
</clipPath>
</defs>
<g id="surface1">
<path style=" stroke:none;fill-rule:evenodd;fill:rgb(34.117647%,65.490196%,38.823529%);fill-opacity:1;" d="M 3.363281 0 L 33.625 0 C 35.484375 0 36.988281 1.527344 36.988281 3.40625 L 36.988281 21.582031 C 36.988281 23.464844 35.484375 24.992188 33.625 24.992188 L 3.363281 24.992188 C 1.503906 24.992188 0 23.464844 0 21.582031 L 0 3.40625 C 0 1.527344 1.503906 0 3.363281 0 Z M 3.363281 0 "/>
<g clip-path="url(#clip1)" clip-rule="nonzero">
<g clip-path="url(#clip2)" clip-rule="evenodd">
<path style=" stroke:none;fill-rule:evenodd;fill:rgb(96.078431%,96.862745%,97.647059%);fill-opacity:1;" d="M 28.753906 15.8125 C 28.746094 15.816406 28.738281 15.824219 28.734375 15.832031 C 28.527344 16.058594 28.296875 16.273438 28.046875 16.472656 C 25.636719 18.371094 22.117188 17.984375 20.191406 15.609375 C 19.820312 15.152344 19.535156 14.652344 19.335938 14.132812 C 19.121094 13.617188 18.984375 13.0625 18.9375 12.476562 C 18.703125 9.445312 21.007812 6.800781 24.085938 6.566406 C 24.40625 6.542969 24.722656 6.546875 25.035156 6.578125 L 25.035156 6.574219 C 25.042969 6.578125 25.050781 6.578125 25.0625 6.574219 C 25.164062 6.566406 25.242188 6.476562 25.234375 6.375 C 25.230469 6.289062 25.167969 6.222656 25.089844 6.207031 C 24.226562 5.921875 23.296875 5.796875 22.335938 5.867188 C 18.472656 6.160156 15.578125 9.484375 15.875 13.289062 C 15.929688 13.996094 16.089844 14.667969 16.339844 15.296875 C 16.589844 15.921875 16.9375 16.523438 17.386719 17.078125 C 19.808594 20.058594 24.222656 20.542969 27.25 18.160156 C 28.003906 17.566406 28.597656 16.851562 29.03125 16.0625 C 29.074219 15.996094 29.074219 15.90625 29.019531 15.84375 C 28.957031 15.761719 28.835938 15.746094 28.753906 15.8125 Z M 24.234375 14.46875 C 23.949219 14.664062 23.785156 14.554688 23.867188 14.21875 L 24.171875 12.980469 C 24.257812 12.648438 24.109375 12.191406 23.84375 11.96875 L 22.914062 11.183594 C 22.652344 10.960938 22.71875 10.769531 23.066406 10.761719 L 24.367188 10.726562 C 24.714844 10.714844 25.078125 10.4375 25.179688 10.109375 L 25.585938 8.757812 C 25.683594 8.429688 25.863281 8.421875 25.980469 8.746094 L 26.46875 10.082031 C 26.585938 10.402344 26.96875 10.667969 27.316406 10.671875 L 28.640625 10.6875 C 28.988281 10.691406 29.058594 10.875 28.796875 11.101562 L 27.789062 11.964844 C 27.527344 12.1875 27.390625 12.640625 27.488281 12.972656 L 27.808594 14.0625 C 27.90625 14.390625 27.742188 14.515625 27.445312 14.335938 L 26.371094 13.683594 C 26.074219 13.507812 25.597656 13.519531 25.3125 13.71875 Z M 24.234375 14.46875 "/>
</g>
</g>
<g clip-path="url(#clip3)" clip-rule="nonzero">
<g clip-path="url(#clip4)" clip-rule="evenodd">
<path style=" stroke:none;fill-rule:evenodd;fill:rgb(96.078431%,96.862745%,97.647059%);fill-opacity:1;" d="M 0 0 L 9.511719 0 L 9.511719 24.992188 L 0 24.992188 Z M 0 0 "/>
</g>
</g>
</g>
</svg>
