<?xml version="1.0" encoding="UTF-8"?>
<svg xmlns="http://www.w3.org/2000/svg" xmlns:xlink="http://www.w3.org/1999/xlink" width="37pt" height="25pt" viewBox="0 0 37 25" version="1.1">
<g id="surface1">
<path style=" stroke:none;fill-rule:evenodd;fill:rgb(92.941176%,33.333333%,39.607843%);fill-opacity:1;" d="M 3.363281 0 L 33.625 0 C 35.484375 0 36.988281 1.527344 36.988281 3.40625 L 36.988281 21.582031 C 36.988281 23.464844 35.484375 24.992188 33.625 24.992188 L 3.363281 24.992188 C 1.503906 24.992188 0 23.464844 0 21.582031 L 0 3.40625 C 0 1.527344 1.503906 0 3.363281 0 Z M 3.363281 0 "/>
<path style=" stroke:none;fill-rule:evenodd;fill:rgb(27.843137%,34.117647%,66.27451%);fill-opacity:1;" d="M 2.640625 0 L 13.210938 0 L 13.210938 12.761719 L 0 12.761719 L 0 2.660156 C 0 1.328125 1.320312 0 2.640625 0 Z M 2.640625 0 "/>
<path style=" stroke:none;fill-rule:nonzero;fill:rgb(100%,100%,100%);fill-opacity:1;" d="M 4.707031 4.515625 C 4.597656 4.59375 4.535156 4.550781 4.566406 4.417969 L 4.683594 3.917969 C 4.714844 3.785156 4.660156 3.605469 4.558594 3.515625 L 4.203125 3.199219 C 4.105469 3.109375 4.128906 3.035156 4.261719 3.03125 L 4.757812 3.015625 C 4.890625 3.011719 5.027344 2.902344 5.066406 2.769531 L 5.222656 2.226562 C 5.257812 2.09375 5.328125 2.09375 5.371094 2.222656 L 5.558594 2.757812 C 5.601562 2.886719 5.75 2.992188 5.878906 2.996094 L 6.386719 3 C 6.519531 3 6.542969 3.078125 6.445312 3.167969 L 6.058594 3.511719 C 5.960938 3.601562 5.910156 3.785156 5.945312 3.914062 L 6.066406 4.351562 C 6.105469 4.484375 6.042969 4.535156 5.929688 4.460938 L 5.519531 4.203125 C 5.40625 4.128906 5.226562 4.136719 5.117188 4.214844 Z M 4.707031 4.515625 "/>
<path style=" stroke:none;fill-rule:nonzero;fill:rgb(100%,100%,100%);fill-opacity:1;" d="M 8.769531 5.902344 C 8.660156 5.980469 8.597656 5.9375 8.628906 5.804688 L 8.746094 5.308594 C 8.777344 5.171875 8.722656 4.992188 8.621094 4.902344 L 8.269531 4.585938 C 8.167969 4.496094 8.191406 4.421875 8.324219 4.417969 L 8.820312 4.402344 C 8.953125 4.398438 9.09375 4.289062 9.128906 4.15625 L 9.285156 3.613281 C 9.324219 3.484375 9.390625 3.480469 9.433594 3.609375 L 9.621094 4.144531 C 9.667969 4.273438 9.8125 4.382812 9.945312 4.382812 L 10.449219 4.386719 C 10.582031 4.390625 10.609375 4.464844 10.507812 4.554688 L 10.125 4.898438 C 10.023438 4.988281 9.972656 5.171875 10.007812 5.304688 L 10.132812 5.738281 C 10.167969 5.871094 10.105469 5.921875 9.992188 5.847656 L 9.582031 5.589844 C 9.46875 5.515625 9.289062 5.523438 9.179688 5.601562 Z M 8.769531 5.902344 "/>
<path style=" stroke:none;fill-rule:nonzero;fill:rgb(100%,100%,100%);fill-opacity:1;" d="M 2.675781 8.328125 C 2.566406 8.410156 2.503906 8.363281 2.535156 8.230469 L 2.652344 7.734375 C 2.683594 7.601562 2.625 7.417969 2.527344 7.328125 L 2.171875 7.015625 C 2.070312 6.925781 2.097656 6.847656 2.230469 6.84375 L 2.726562 6.832031 C 2.859375 6.828125 2.996094 6.714844 3.035156 6.585938 L 3.191406 6.042969 C 3.226562 5.910156 3.292969 5.90625 3.339844 6.039062 L 3.527344 6.574219 C 3.570312 6.703125 3.714844 6.808594 3.847656 6.808594 L 4.355469 6.816406 C 4.484375 6.816406 4.511719 6.890625 4.414062 6.980469 L 4.027344 7.328125 C 3.929688 7.417969 3.878906 7.597656 3.914062 7.730469 L 4.035156 8.167969 C 4.074219 8.300781 4.011719 8.347656 3.898438 8.277344 L 3.488281 8.015625 C 3.375 7.945312 3.195312 7.949219 3.085938 8.03125 Z M 2.675781 8.328125 "/>
<path style=" stroke:none;fill-rule:nonzero;fill:rgb(100%,100%,100%);fill-opacity:1;" d="M 7.585938 10.074219 C 7.507812 10.132812 7.460938 10.097656 7.484375 10.003906 L 7.570312 9.648438 C 7.589844 9.554688 7.550781 9.425781 7.476562 9.359375 L 7.222656 9.136719 C 7.152344 9.070312 7.171875 9.015625 7.265625 9.015625 L 7.621094 9.003906 C 7.714844 9 7.816406 8.921875 7.84375 8.828125 L 7.953125 8.441406 C 7.980469 8.347656 8.03125 8.34375 8.0625 8.4375 L 8.195312 8.820312 C 8.226562 8.910156 8.332031 8.988281 8.425781 8.988281 L 8.789062 8.992188 C 8.882812 8.992188 8.902344 9.046875 8.832031 9.113281 L 8.554688 9.359375 C 8.484375 9.421875 8.449219 9.550781 8.472656 9.648438 L 8.5625 9.957031 C 8.589844 10.054688 8.542969 10.089844 8.460938 10.035156 L 8.167969 9.851562 C 8.085938 9.800781 7.957031 9.804688 7.878906 9.859375 Z M 7.585938 10.074219 "/>
</g>
</svg>
