<?xml version="1.0" encoding="UTF-8"?>
<svg xmlns="http://www.w3.org/2000/svg" xmlns:xlink="http://www.w3.org/1999/xlink" width="37pt" height="25pt" viewBox="0 0 37 25" version="1.1">
<defs>
<clipPath id="clip1">
  <path d="M 0 0 L 37 0 L 37 13 L 0 13 Z M 0 0 "/>
</clipPath>
<clipPath id="clip2">
  <path d="M 3.363281 0 L 33.625 0 C 35.484375 0 36.988281 1.527344 36.988281 3.40625 L 36.988281 21.582031 C 36.988281 23.464844 35.484375 24.992188 33.625 24.992188 L 3.363281 24.992188 C 1.503906 24.992188 0 23.464844 0 21.582031 L 0 3.40625 C 0 1.527344 1.503906 0 3.363281 0 Z M 3.363281 0 "/>
</clipPath>
</defs>
<g id="surface1">
<path style=" stroke:none;fill-rule:evenodd;fill:rgb(23.137255%,68.627451%,85.098039%);fill-opacity:1;" d="M 3.363281 0 L 33.625 0 C 35.484375 0 36.988281 1.527344 36.988281 3.40625 L 36.988281 21.582031 C 36.988281 23.464844 35.484375 24.992188 33.625 24.992188 L 3.363281 24.992188 C 1.503906 24.992188 0 23.464844 0 21.582031 L 0 3.40625 C 0 1.527344 1.503906 0 3.363281 0 Z M 3.363281 0 "/>
<g clip-path="url(#clip1)" clip-rule="nonzero">
<g clip-path="url(#clip2)" clip-rule="evenodd">
<path style=" stroke:none;fill-rule:evenodd;fill:rgb(96.078431%,96.862745%,97.647059%);fill-opacity:1;" d="M 0 0 L 36.988281 0 L 36.988281 12.761719 L 0 12.761719 Z M 0 0 "/>
</g>
</g>
<path style=" stroke:none;fill-rule:evenodd;fill:rgb(34.117647%,65.490196%,38.823529%);fill-opacity:1;" d="M 13.027344 16.671875 C 12.746094 16.820312 12.574219 17.179688 12.265625 17.253906 C 11.9375 17.328125 11.710938 17.414062 11.578125 17.578125 C 11.59375 17.496094 11.609375 17.421875 11.628906 17.351562 C 11.332031 17.683594 10.988281 18.027344 10.6875 18.015625 C 10.871094 17.914062 10.96875 17.625 11.035156 17.417969 C 10.8125 17.800781 10.453125 18.265625 9.570312 18.070312 C 9.703125 18.039062 9.835938 17.886719 10 17.699219 C 9.667969 17.761719 9.324219 17.800781 8.984375 17.9375 C 9.433594 17.3125 10.023438 17.09375 10.734375 17.101562 C 10.785156 17.078125 10.835938 17.058594 10.890625 17.039062 C 10.632812 17.042969 10.390625 17.015625 10.167969 16.957031 C 10.347656 16.957031 11.019531 16.457031 11.769531 16.511719 C 11.621094 16.40625 11.496094 16.300781 11.363281 16.292969 C 12.085938 16.042969 12.429688 16.433594 12.980469 16.535156 C 13.167969 16.5 13.347656 16.441406 13.503906 16.433594 C 13.34375 16.398438 13.355469 16.144531 13.546875 16.144531 C 13.734375 16.144531 13.746094 16.398438 13.582031 16.433594 C 13.609375 16.4375 13.636719 16.441406 13.664062 16.445312 C 14.054688 16.554688 14 16.382812 14.273438 16.425781 C 14.175781 16.316406 14.011719 16.195312 13.882812 16.023438 C 13.832031 15.957031 13.769531 15.859375 13.6875 15.746094 C 13.652344 15.75 13.613281 15.75 13.578125 15.75 C 13.359375 15.757812 13.003906 15.742188 12.6875 15.722656 C 12.6875 15.796875 12.636719 15.871094 12.535156 15.871094 C 12.421875 15.871094 12.371094 15.777344 12.386719 15.695312 C 12.292969 15.683594 12.207031 15.675781 12.144531 15.664062 C 12.101562 15.65625 12.0625 15.652344 12.027344 15.652344 C 12.167969 15.703125 12.148438 15.933594 11.964844 15.933594 C 11.792969 15.933594 11.769531 15.730469 11.882812 15.664062 C 11.867188 15.664062 11.855469 15.667969 11.839844 15.671875 C 11.601562 15.878906 11.292969 16.011719 10.984375 16.140625 C 10.644531 16.28125 10.179688 16.1875 9.753906 16.457031 C 9.90625 16.363281 9.96875 16.128906 10.0625 15.921875 C 9.796875 15.914062 9.554688 15.863281 9.222656 15.882812 C 9.527344 15.59375 9.890625 15.441406 10.3125 15.40625 C 10.09375 15.265625 9.871094 15.074219 9.636719 14.859375 C 10.5625 14.804688 10.707031 14.96875 11.359375 15.515625 C 11.492188 15.523438 11.644531 15.53125 11.808594 15.542969 C 11.828125 15.53125 11.851562 15.523438 11.871094 15.511719 C 11.84375 15.4375 11.75 15.304688 11.625 15.160156 L 11.625 15.164062 C 11.1875 14.652344 10.09375 14.878906 9.886719 14.226562 C 10.070312 14.378906 10.394531 14.410156 10.734375 14.410156 C 10.8125 14.410156 10.882812 14.417969 10.953125 14.429688 C 10.59375 13.894531 9.632812 14.082031 9.398438 13.335938 C 9.613281 13.582031 9.933594 13.445312 10.277344 13.496094 C 10.121094 13.3125 9.851562 13.082031 9.710938 12.976562 C 9.527344 12.832031 9.332031 12.726562 9.050781 11.722656 C 9.257812 12.027344 9.777344 11.972656 9.929688 12.59375 C 9.960938 12.726562 10.039062 12.914062 10.144531 13.113281 C 10.042969 12.839844 10.003906 12.550781 10.09375 12.257812 C 10.984375 13.210938 10.75 13.503906 10.871094 14.027344 C 10.953125 14.167969 11.03125 14.320312 11.101562 14.480469 C 11.164062 14.507812 11.230469 14.542969 11.296875 14.597656 C 11.117188 14.195312 11.164062 13.773438 11.308594 13.410156 C 11.519531 13.773438 11.886719 14.429688 11.726562 14.992188 C 11.816406 15.121094 11.941406 15.296875 12.078125 15.476562 C 12.277344 15.503906 12.980469 15.542969 13.542969 15.566406 C 13.421875 15.429688 13.269531 15.285156 13.078125 15.171875 C 12.851562 15.039062 12.777344 14.875 12.71875 14.671875 C 12.699219 14.65625 12.679688 14.644531 12.664062 14.628906 C 12.585938 14.546875 12.386719 14.417969 12.160156 14.304688 C 11.933594 14.1875 11.347656 13.78125 11.347656 12.980469 C 11.410156 13.144531 11.679688 13.386719 11.984375 13.664062 C 11.878906 13.433594 11.851562 13.210938 11.875 13.003906 C 11.625 12.742188 11.417969 12.550781 11.152344 12.394531 C 10.875 12.230469 10.582031 12.066406 10.515625 11.460938 C 10.597656 11.660156 11.003906 11.820312 11.230469 11.9375 C 11.257812 11.949219 11.28125 11.964844 11.304688 11.980469 C 11.277344 11.898438 11.242188 11.824219 11.210938 11.75 C 11.183594 11.777344 11.144531 11.796875 11.09375 11.796875 C 10.894531 11.796875 10.890625 11.523438 11.074219 11.503906 C 11 11.386719 10.921875 11.292969 10.839844 11.234375 C 10.613281 11.070312 10.464844 10.566406 10.351562 9.78125 C 10.398438 9.917969 10.617188 10.0625 10.8125 10.261719 C 10.78125 9.785156 10.894531 9.332031 11.132812 8.933594 C 11.089844 9.148438 11.210938 9.414062 11.285156 9.796875 C 11.371094 9.597656 11.488281 9.410156 11.640625 9.257812 C 11.476562 9.503906 11.574219 9.894531 11.589844 10.269531 C 11.617188 10.917969 11.34375 10.878906 11.289062 11.359375 C 11.359375 11.53125 11.433594 11.707031 11.480469 12.0625 C 11.46875 11.695312 11.589844 11.371094 11.671875 11.121094 C 12.253906 12.351562 11.667969 12.363281 11.878906 12.96875 C 11.902344 12.808594 11.957031 12.660156 12.03125 12.523438 C 12.03125 12.609375 12.066406 12.703125 12.117188 12.804688 C 12.15625 12.589844 12.203125 12.382812 12.21875 12.324219 C 12.253906 12.214844 12.242188 12.160156 12.175781 12.082031 C 12.113281 12.007812 12.121094 12.027344 12.121094 11.929688 C 12.121094 11.832031 12.132812 11.636719 12.160156 11.460938 C 12.226562 11.121094 11.878906 11 11.949219 10.546875 C 11.988281 10.296875 12.066406 10.167969 12.164062 10.035156 C 12.136719 9.792969 12.144531 9.574219 12.195312 9.359375 C 11.980469 8.726562 11.957031 8.28125 12.078125 8.035156 C 12.210938 7.773438 12.355469 7.480469 12.355469 7.332031 C 12.515625 7.816406 12.527344 8.316406 12.453125 8.75 C 12.472656 8.714844 12.496094 8.679688 12.523438 8.640625 C 12.617188 8.355469 12.664062 8.097656 12.683594 7.886719 C 12.699219 7.675781 13.121094 7.070312 13.480469 6.910156 C 13.445312 7.335938 13.121094 7.894531 12.824219 8.292969 C 13.027344 8.09375 13.300781 7.886719 13.691406 7.675781 C 13.382812 7.902344 13.546875 8.359375 12.699219 9.03125 C 12.347656 9.308594 12.257812 9.421875 12.304688 9.847656 C 12.378906 9.746094 12.457031 9.628906 12.535156 9.453125 C 12.601562 9.863281 12.535156 10.792969 12.273438 11.445312 C 12.253906 11.605469 12.265625 11.691406 12.253906 11.800781 C 12.242188 11.910156 12.296875 12.027344 12.425781 12.082031 C 12.351562 12.195312 12.324219 12.640625 12.308594 13.035156 C 12.441406 13.058594 12.460938 13.222656 12.371094 13.292969 C 12.382812 13.332031 12.394531 13.378906 12.40625 13.433594 C 12.414062 13.148438 12.480469 12.898438 12.578125 12.734375 C 12.566406 12.878906 12.707031 13.226562 12.9375 13.640625 C 12.984375 13.722656 13.007812 13.800781 13.023438 13.875 C 13.03125 13.785156 13.046875 13.695312 13.066406 13.605469 C 12.863281 13.058594 12.359375 12.15625 12.558594 11.410156 C 12.621094 11.65625 12.914062 11.976562 13.039062 12.308594 C 13.050781 12.214844 13.0625 12.125 13.078125 12.039062 C 12.964844 11.539062 12.507812 10.925781 12.839844 9.808594 C 12.976562 10.007812 13.082031 10.28125 13.148438 10.585938 C 13.171875 10.476562 13.210938 10.378906 13.253906 10.289062 C 13.257812 9.753906 13.382812 9.113281 13.609375 8.675781 C 13.574219 8.761719 13.65625 9.292969 13.585938 9.824219 C 13.601562 9.808594 13.617188 9.792969 13.632812 9.777344 C 13.542969 10.148438 13.425781 10.738281 13.222656 11.191406 C 13.222656 11.199219 13.222656 11.207031 13.222656 11.214844 C 13.472656 11.632812 13.464844 12.402344 13.160156 12.902344 C 13.167969 13.023438 13.171875 13.15625 13.164062 13.3125 C 13.21875 13.1875 13.285156 13.070312 13.371094 12.964844 C 13.316406 13.496094 13.632812 14.03125 13.523438 14.25 C 13.429688 14.433594 13.324219 14.804688 13.347656 15.078125 C 13.492188 15.210938 13.625 15.324219 13.6875 15.371094 C 13.710938 15.417969 13.75 15.496094 13.796875 15.578125 C 13.898438 15.582031 13.988281 15.585938 14.066406 15.585938 C 13.726562 15.066406 13.695312 14.34375 13.820312 14.105469 C 13.953125 13.863281 14.082031 13.648438 14.132812 13.339844 C 14.410156 13.714844 14.328125 14.402344 14.261719 14.628906 C 14.199219 14.847656 14.125 15.324219 14.230469 15.597656 C 14.261719 15.601562 14.292969 15.605469 14.320312 15.609375 C 14.191406 15.550781 14.214844 15.328125 14.390625 15.328125 C 14.59375 15.328125 14.597656 15.621094 14.394531 15.625 C 14.652344 15.691406 14.753906 15.859375 14.828125 16.152344 C 14.914062 16.503906 15.238281 16.75 15.46875 16.875 C 15.90625 17.015625 16.519531 17.378906 16.851562 17.566406 C 17.191406 17.765625 17.925781 18.402344 18.15625 18.679688 C 18.195312 18.730469 18.25 18.789062 18.304688 18.847656 C 18.820312 18.425781 19.609375 17.820312 19.953125 17.578125 C 20.386719 17.273438 20.789062 17.109375 20.722656 16.445312 L 21.027344 16.085938 C 21.058594 16.25 21.039062 16.664062 20.984375 16.796875 C 21.160156 16.777344 21.390625 16.554688 21.65625 16.386719 C 21.566406 16.402344 21.476562 16.402344 21.421875 16.359375 C 21.28125 16.261719 21.378906 16.125 21.460938 16.066406 C 21.542969 16.007812 21.566406 15.871094 21.566406 15.773438 C 21.566406 15.675781 21.632812 15.496094 21.746094 15.390625 C 21.859375 15.28125 22.039062 15.289062 22.144531 15.324219 C 22.160156 15.328125 22.167969 15.328125 22.183594 15.328125 C 22.183594 15.328125 22.1875 15.328125 22.1875 15.324219 L 22.183594 15.328125 C 22.265625 15.339844 22.316406 15.304688 22.371094 15.226562 C 22.402344 15.183594 22.46875 15.160156 22.546875 15.15625 C 22.542969 15.15625 22.539062 15.15625 22.535156 15.15625 C 22.351562 15.015625 22.21875 14.804688 22.210938 14.609375 C 22.253906 14.457031 22.425781 13.867188 22.675781 13.597656 C 23.066406 13.953125 22.914062 14.160156 22.808594 14.304688 C 22.761719 14.363281 22.734375 14.429688 22.738281 14.503906 L 22.757812 14.597656 C 22.789062 14.679688 22.855469 14.773438 22.972656 14.878906 L 22.972656 14.886719 C 22.972656 14.894531 22.972656 14.90625 22.972656 14.914062 C 22.972656 14.90625 22.972656 14.894531 22.972656 14.886719 C 22.976562 14.800781 22.964844 14.703125 22.9375 14.597656 C 22.882812 14.390625 22.96875 14.160156 23.144531 14.269531 C 23.109375 14.183594 23.078125 14.117188 23.035156 14.054688 C 22.945312 13.917969 23.109375 13.953125 23.058594 13.835938 C 23.003906 13.714844 23.046875 13.585938 23.15625 13.683594 C 23.183594 13.707031 23.210938 13.726562 23.234375 13.738281 C 23.191406 13.402344 23.136719 12.902344 23.109375 12.746094 C 22.710938 12.703125 22.730469 9.777344 22.785156 9.339844 C 22.960938 9.175781 23.089844 9.285156 23.164062 9.375 C 23.242188 9.460938 23.261719 9.492188 23.371094 9.339844 C 23.480469 9.1875 23.621094 9.242188 23.566406 9.417969 C 23.511719 9.589844 23.699219 9.613281 23.644531 9.820312 C 23.785156 9.929688 23.882812 10.210938 23.589844 10.375 C 23.480469 10.460938 23.664062 10.765625 23.535156 10.90625 C 23.902344 10.917969 23.945312 11.289062 23.773438 11.417969 C 23.691406 11.480469 23.609375 11.570312 23.675781 11.679688 C 23.742188 11.789062 23.707031 11.917969 23.566406 12.019531 C 23.425781 12.117188 23.328125 12.367188 23.316406 12.683594 C 23.328125 12.90625 23.363281 13.460938 23.375 13.746094 C 23.394531 13.738281 23.414062 13.734375 23.4375 13.726562 C 23.535156 13.695312 23.644531 13.8125 23.546875 13.910156 C 23.449219 14.007812 23.46875 14.117188 23.566406 14.207031 C 23.664062 14.292969 23.699219 14.433594 23.644531 14.5 C 23.589844 14.5625 23.566406 14.664062 23.578125 14.75 C 23.585938 14.800781 23.578125 14.871094 23.546875 14.9375 C 23.609375 14.84375 23.652344 14.761719 23.664062 14.707031 C 23.699219 14.554688 23.777344 14.378906 23.828125 14.183594 C 23.816406 14.03125 23.785156 13.867188 23.804688 13.714844 C 23.828125 13.5625 23.804688 13.464844 23.707031 13.355469 C 23.609375 13.246094 23.566406 13.148438 23.632812 13.0625 C 23.699219 12.976562 23.664062 12.886719 23.589844 12.800781 C 23.511719 12.714844 23.492188 12.628906 23.578125 12.476562 C 23.664062 12.324219 23.75 12.300781 23.785156 12.398438 C 23.632812 11.972656 23.914062 11.855469 24.042969 11.910156 C 24.175781 11.964844 24.175781 12.105469 24.097656 12.191406 C 24.023438 12.277344 23.992188 12.441406 23.957031 12.59375 C 24 12.511719 24.070312 12.457031 24.136719 12.429688 C 24.140625 12.425781 24.140625 12.421875 24.144531 12.421875 C 24.242188 12.246094 24.371094 12.0625 24.402344 11.917969 C 24.4375 11.777344 24.445312 11.636719 24.402344 11.496094 C 24.359375 11.355469 24.316406 11.265625 24.359375 11.082031 C 24.402344 10.898438 24.414062 10.515625 24.371094 10.34375 C 24.292969 10.296875 24.285156 10.320312 24.207031 10.351562 C 24.132812 10.386719 24.023438 10.242188 24.109375 10.125 C 24.007812 10.003906 23.914062 9.824219 23.984375 9.769531 C 24.054688 9.714844 24.167969 9.804688 24.253906 9.976562 C 24.289062 9.960938 24.324219 9.988281 24.320312 10.019531 C 24.316406 10.050781 24.371094 10.082031 24.371094 10.027344 C 24.367188 9.902344 24.359375 9.742188 24.328125 9.578125 C 24.277344 9.300781 24 9.257812 23.871094 9.195312 C 23.742188 9.128906 23.757812 9.039062 23.910156 8.980469 C 23.804688 8.925781 23.699219 8.925781 23.59375 8.917969 C 23.335938 8.894531 23.359375 8.679688 23.441406 8.589844 C 23.519531 8.5 23.441406 8.484375 23.285156 8.5 C 22.914062 8.539062 23.089844 8.214844 23.21875 8.109375 C 23.351562 8.003906 23.539062 8.011719 23.578125 8.117188 C 23.617188 8.222656 23.652344 8.261719 23.8125 8.230469 C 23.925781 8.207031 23.984375 8.289062 24.007812 8.386719 C 24.078125 8.273438 24.105469 8.195312 24.042969 8.148438 C 23.960938 8.09375 23.871094 7.976562 23.910156 7.914062 C 23.722656 7.953125 23.675781 7.796875 23.742188 7.714844 C 23.804688 7.636719 23.847656 7.535156 23.75 7.445312 C 23.652344 7.355469 23.714844 7.1875 23.855469 7.136719 C 23.992188 7.089844 24.117188 7.160156 24.148438 7.277344 C 24.179688 7.390625 24.246094 7.457031 24.382812 7.511719 C 24.523438 7.570312 24.652344 7.644531 24.53125 7.9375 C 24.464844 8.09375 24.457031 8.132812 24.554688 8.164062 C 24.652344 8.199219 24.726562 8.378906 24.675781 8.550781 C 24.664062 8.597656 24.644531 8.675781 24.621094 8.769531 C 24.632812 8.746094 24.640625 8.726562 24.652344 8.710938 C 24.851562 8.449219 24.75 8.183594 24.726562 7.96875 C 24.703125 7.757812 24.921875 7.734375 25.003906 7.78125 C 25.085938 7.832031 25.117188 7.789062 25.167969 7.683594 C 25.292969 7.40625 25.515625 7.488281 25.605469 7.59375 C 25.695312 7.699219 25.605469 7.855469 25.5 7.894531 C 25.394531 7.9375 25.371094 8.082031 25.433594 8.171875 C 25.5 8.261719 25.476562 8.371094 25.410156 8.378906 C 25.34375 8.386719 25.296875 8.441406 25.304688 8.5 C 25.3125 8.558594 25.207031 8.597656 25.078125 8.613281 C 24.824219 8.636719 24.621094 9.113281 24.542969 9.375 L 24.539062 9.371094 C 24.554688 9.421875 24.554688 9.484375 24.539062 9.570312 C 24.546875 10.230469 24.554688 11.054688 24.578125 11.414062 C 24.675781 11.242188 24.75 11.113281 24.75 10.988281 C 24.75 10.851562 24.765625 10.664062 24.855469 10.582031 C 24.808594 10.441406 24.921875 10.261719 24.847656 10.101562 C 24.78125 9.953125 24.929688 9.929688 25.050781 9.96875 C 25.175781 10.011719 25.140625 9.878906 25.042969 9.863281 C 24.945312 9.847656 24.898438 9.789062 24.847656 9.707031 C 24.800781 9.625 24.824219 9.429688 24.960938 9.390625 C 25.101562 9.347656 25.085938 9.316406 25.085938 9.226562 C 25.085938 9.136719 25.148438 9.015625 25.328125 8.917969 C 25.507812 8.816406 25.558594 8.917969 25.515625 8.980469 C 25.476562 9.046875 25.449219 9.113281 25.515625 9.160156 C 25.539062 9.179688 25.554688 9.195312 25.5625 9.210938 C 25.832031 8.964844 26.09375 8.828125 26.421875 8.90625 C 26.582031 8.949219 26.566406 8.957031 26.519531 9.015625 C 26.46875 9.070312 26.519531 9.136719 26.625 9.203125 C 26.730469 9.265625 26.804688 9.453125 26.753906 9.511719 C 26.707031 9.570312 26.625 9.609375 26.535156 9.511719 C 26.445312 9.414062 26.421875 9.472656 26.429688 9.5625 C 26.4375 9.652344 26.460938 9.699219 26.332031 9.675781 C 26.199219 9.652344 26.117188 9.644531 26.039062 9.660156 C 25.957031 9.675781 25.90625 9.652344 25.90625 9.542969 C 25.90625 9.460938 25.792969 9.40625 25.640625 9.46875 C 25.667969 9.523438 25.625 9.609375 25.523438 9.691406 C 25.402344 9.789062 25.433594 9.894531 25.53125 9.953125 C 25.628906 10.011719 25.546875 10.148438 25.441406 10.230469 C 25.335938 10.3125 25.109375 10.507812 25.011719 10.695312 C 24.980469 11.105469 24.9375 11.203125 24.832031 11.339844 C 24.710938 11.496094 24.644531 11.617188 24.644531 11.742188 C 24.644531 11.863281 24.480469 12.109375 24.441406 12.34375 C 24.480469 12.441406 24.546875 12.523438 24.597656 12.554688 C 24.75 12.554688 24.808594 12.59375 24.773438 12.683594 C 24.980469 12.957031 24.800781 13.082031 24.542969 12.914062 C 24.429688 12.933594 24.40625 12.800781 24.472656 12.671875 C 24.4375 12.566406 24.410156 12.546875 24.367188 12.484375 C 24.347656 12.503906 24.335938 12.527344 24.320312 12.550781 C 24.304688 12.582031 24.285156 12.617188 24.25 12.660156 C 24.242188 12.667969 24.238281 12.679688 24.230469 12.6875 C 24.210938 12.730469 24.191406 12.773438 24.175781 12.824219 C 24.175781 12.851562 24.199219 12.871094 24.25 12.867188 C 24.371094 12.855469 24.382812 12.953125 24.25 13.085938 C 24.121094 13.214844 24.273438 13.453125 24.078125 13.640625 C 24.058594 13.65625 24.046875 13.683594 24.03125 13.710938 C 24.015625 13.863281 23.992188 14.011719 23.957031 14.140625 C 23.957031 14.195312 23.980469 14.304688 23.957031 14.359375 C 24.195312 14.171875 24.414062 14.171875 24.535156 13.964844 C 24.652344 13.757812 24.671875 13.644531 24.785156 13.5625 C 24.945312 13.445312 25 13.171875 25.066406 12.941406 C 25.085938 12.832031 25.078125 12.703125 25.011719 12.582031 C 24.945312 12.464844 24.914062 12.300781 25.023438 12.191406 C 25.128906 12.082031 25.140625 12.027344 25.042969 11.941406 C 24.945312 11.855469 24.957031 11.765625 25.042969 11.703125 C 25.128906 11.636719 25.140625 11.570312 25.109375 11.496094 C 25.078125 11.417969 25.097656 11.320312 25.175781 11.222656 C 25.296875 11.0625 25.328125 10.972656 25.488281 11.09375 C 25.652344 11.210938 25.671875 11.386719 25.542969 11.613281 C 25.628906 11.636719 25.769531 11.648438 25.738281 11.527344 C 25.707031 11.410156 25.707031 11.167969 25.871094 11.015625 C 26.03125 10.863281 26.214844 10.953125 26.171875 11.050781 C 26.128906 11.148438 26.171875 11.300781 26.226562 11.386719 C 26.28125 11.472656 26.207031 11.59375 26.085938 11.648438 C 25.964844 11.703125 25.964844 11.800781 26.042969 11.886719 C 26.117188 11.972656 26.03125 12.136719 25.902344 12.222656 C 25.769531 12.3125 25.683594 12.429688 25.683594 12.550781 C 25.683594 12.601562 25.640625 12.671875 25.574219 12.75 C 25.722656 12.6875 25.886719 12.628906 26.019531 12.585938 C 26.183594 12.394531 26.277344 11.984375 26.238281 11.789062 C 26.335938 11.777344 26.410156 11.765625 26.464844 11.820312 C 26.5625 11.507812 26.628906 11.148438 26.953125 11.472656 C 27.292969 11.265625 27.453125 11.265625 27.585938 11.277344 C 27.710938 11.289062 27.761719 11.507812 27.664062 11.6875 C 27.683594 11.691406 27.699219 11.699219 27.714844 11.714844 C 27.855469 11.832031 27.789062 11.964844 27.683594 12.082031 C 27.574219 12.203125 27.507812 12.234375 27.550781 12.386719 C 28.0625 12.355469 28.0625 12.683594 27.933594 12.714844 C 27.800781 12.746094 27.800781 12.8125 27.757812 12.886719 C 27.714844 12.964844 27.605469 13.007812 27.453125 12.976562 C 27.300781 12.941406 27.148438 12.988281 26.976562 13.09375 C 26.804688 13.203125 26.464844 13.050781 26.183594 12.867188 C 25.929688 12.699219 25.597656 12.816406 25.304688 12.984375 C 25.269531 13.003906 25.238281 13.023438 25.207031 13.039062 C 25.078125 13.574219 25 13.695312 24.890625 13.78125 C 24.785156 13.867188 24.730469 13.921875 24.695312 14 C 24.664062 14.074219 24.542969 14.207031 24.4375 14.28125 C 24.480469 14.324219 24.535156 14.335938 24.609375 14.324219 C 24.6875 14.3125 24.800781 14.386719 24.761719 14.476562 C 24.996094 14.835938 24.699219 14.824219 24.511719 14.683594 C 24.390625 14.726562 24.339844 14.554688 24.382812 14.5 C 24.425781 14.445312 24.390625 14.390625 24.347656 14.359375 C 24.25 14.421875 24.097656 14.464844 23.992188 14.476562 C 23.9375 14.640625 23.828125 14.890625 23.761719 14.988281 C 23.945312 14.878906 24.390625 15.097656 24.953125 14.816406 C 24.988281 14.789062 25.023438 14.773438 25.058594 14.765625 C 25.164062 14.59375 25.308594 14.492188 25.386719 14.492188 C 25.484375 14.492188 25.515625 14.472656 25.53125 14.410156 C 25.546875 14.34375 25.6875 14.253906 25.816406 14.3125 C 25.949219 14.367188 25.996094 14.34375 26.003906 14.261719 C 26.011719 14.179688 26.125 14.042969 26.460938 14.171875 C 26.789062 14.300781 26.964844 14.382812 26.554688 14.695312 C 26.617188 14.722656 26.683594 14.730469 26.761719 14.71875 C 26.890625 14.703125 26.980469 14.726562 27.105469 14.867188 C 27.226562 15.003906 27.21875 15.078125 27.023438 15.21875 C 26.980469 15.25 26.945312 15.269531 26.914062 15.285156 C 27.027344 15.660156 26.78125 15.628906 26.671875 15.585938 C 26.558594 15.535156 26.519531 15.542969 26.445312 15.601562 C 26.371094 15.65625 26.234375 15.625 26.136719 15.535156 C 26.039062 15.445312 25.921875 15.476562 25.832031 15.535156 C 25.746094 15.59375 25.597656 15.445312 25.484375 15.289062 C 25.371094 15.136719 25.066406 14.988281 24.914062 15.019531 C 24.554688 15.152344 24.316406 15.164062 24.152344 15.164062 C 23.992188 15.164062 23.847656 15.183594 23.761719 15.273438 C 23.675781 15.359375 23.46875 15.433594 23.273438 15.585938 C 23.273438 15.589844 23.269531 15.59375 23.265625 15.59375 C 23.277344 15.660156 23.300781 15.726562 23.328125 15.78125 C 23.382812 15.890625 23.394531 16 23.328125 16.097656 C 23.261719 16.195312 23.207031 16.261719 23.253906 16.390625 C 23.269531 16.441406 23.25 16.488281 23.210938 16.527344 C 23.289062 16.542969 23.363281 16.558594 23.433594 16.578125 C 23.511719 16.558594 23.578125 16.523438 23.664062 16.4375 C 23.804688 16.292969 24.078125 16.023438 24.089844 15.871094 C 24.097656 15.71875 24.207031 15.628906 24.285156 15.609375 C 24.359375 15.585938 24.4375 15.542969 24.457031 15.476562 C 24.480469 15.414062 24.566406 15.335938 24.738281 15.324219 C 24.914062 15.316406 25.042969 15.402344 24.957031 15.542969 C 24.910156 15.621094 24.863281 15.710938 24.820312 15.8125 C 24.914062 15.855469 24.964844 15.847656 25.03125 15.675781 C 25.121094 15.457031 25.371094 15.390625 25.523438 15.523438 C 25.671875 15.652344 25.671875 15.78125 25.554688 15.871094 C 25.433594 15.957031 25.378906 16.042969 25.46875 16.085938 C 25.554688 16.132812 25.542969 16.21875 25.457031 16.273438 C 25.417969 16.296875 25.371094 16.328125 25.324219 16.363281 C 25.355469 16.382812 25.386719 16.402344 25.40625 16.410156 C 25.445312 16.425781 25.511719 16.429688 25.558594 16.371094 C 25.601562 16.316406 25.734375 16.199219 25.800781 16.320312 C 26.144531 16.3125 26.347656 16.605469 25.835938 16.671875 C 25.796875 16.773438 25.640625 16.765625 25.59375 16.695312 C 25.542969 16.625 25.5 16.5625 25.425781 16.558594 C 25.371094 16.558594 25.289062 16.515625 25.21875 16.460938 C 25.199219 16.480469 25.183594 16.5 25.175781 16.523438 C 25.128906 16.621094 25.085938 16.632812 25 16.597656 C 24.914062 16.566406 24.882812 16.609375 24.828125 16.675781 C 24.773438 16.742188 24.75 16.785156 24.632812 16.773438 C 24.511719 16.761719 24.339844 16.859375 24.175781 16.859375 C 24.164062 16.859375 24.148438 16.859375 24.136719 16.859375 C 24.339844 16.925781 24.574219 16.964844 24.730469 16.949219 C 24.769531 16.941406 24.820312 16.9375 24.871094 16.933594 C 25.398438 16.804688 25.859375 16.796875 26.019531 16.828125 C 26.195312 16.859375 26.238281 16.949219 26.195312 16.96875 C 26.152344 16.992188 26.152344 17.101562 26.335938 17.164062 C 26.519531 17.230469 26.683594 17.371094 26.574219 17.503906 C 26.464844 17.632812 26.390625 17.6875 26.238281 17.621094 C 26.234375 17.621094 26.226562 17.617188 26.222656 17.617188 C 26.292969 17.730469 26.386719 17.785156 26.488281 17.808594 C 26.628906 17.839844 26.585938 18.058594 26.5 18.15625 C 26.410156 18.253906 26.367188 18.351562 26.410156 18.417969 C 26.457031 18.480469 26.445312 18.570312 26.367188 18.632812 C 26.292969 18.699219 26.183594 18.753906 26.109375 18.679688 C 26.03125 18.601562 25.957031 18.492188 26.042969 18.363281 C 26.128906 18.230469 26.03125 18.15625 25.945312 18.242188 C 25.859375 18.328125 25.804688 18.375 25.71875 18.210938 C 25.65625 18.097656 25.710938 17.96875 25.75 17.789062 C 25.679688 17.785156 25.613281 17.757812 25.566406 17.699219 C 25.585938 17.785156 25.578125 17.863281 25.511719 17.894531 C 25.484375 17.90625 25.453125 17.910156 25.425781 17.90625 C 25.425781 18.019531 25.402344 18.101562 25.347656 18.121094 C 25.261719 18.15625 25.261719 18.230469 25.292969 18.363281 C 25.328125 18.492188 25 18.515625 24.980469 18.417969 C 24.957031 18.320312 24.890625 18.273438 24.785156 18.339844 C 24.675781 18.40625 24.578125 18.308594 24.597656 18.222656 C 24.621094 18.132812 24.578125 18.078125 24.511719 18.132812 C 24.445312 18.1875 24.371094 18.113281 24.390625 18.035156 C 24.414062 17.960938 24.371094 17.882812 24.328125 17.773438 C 24.289062 17.675781 24.324219 17.429688 24.511719 17.222656 C 24.53125 17.136719 24.5625 17.0625 24.382812 17.046875 C 24.164062 17.023438 23.96875 16.949219 23.816406 16.851562 C 23.703125 16.777344 23.351562 16.683594 23.027344 16.644531 C 22.992188 16.660156 22.960938 16.675781 22.925781 16.6875 C 22.753906 16.75 22.503906 16.652344 22.339844 16.621094 C 22.226562 16.597656 22.175781 16.578125 22.148438 16.523438 C 21.933594 16.566406 21.726562 16.5625 21.625 16.675781 C 21.546875 16.757812 21.453125 16.820312 21.351562 16.878906 C 21.425781 16.867188 21.488281 16.847656 21.558594 16.816406 C 21.6875 16.761719 21.785156 16.734375 21.890625 16.777344 C 22 16.816406 22.023438 16.816406 22.113281 16.785156 C 22.203125 16.75 22.363281 16.875 22.421875 16.972656 C 22.480469 17.070312 22.625 17.101562 22.691406 17.003906 C 22.753906 16.90625 22.902344 16.859375 23.039062 16.890625 C 23.179688 16.921875 23.285156 17.003906 23.234375 17.070312 C 23.1875 17.136719 23.1875 17.332031 23.195312 17.398438 L 22.445312 17.730469 C 22.195312 17.683594 22.144531 17.585938 22.128906 17.503906 C 22.113281 17.421875 22.085938 17.347656 21.949219 17.371094 C 21.8125 17.398438 21.722656 17.378906 21.722656 17.25 C 21.722656 17.117188 21.597656 16.949219 21.484375 16.972656 C 21.410156 16.988281 21.269531 16.992188 21.152344 16.980469 C 20.988281 17.054688 20.898438 17.191406 20.679688 17.371094 C 20.246094 17.722656 18.941406 18.621094 18.683594 18.824219 C 18.617188 18.875 18.542969 18.941406 18.464844 19.011719 C 18.6875 19.234375 18.933594 19.453125 19.050781 19.527344 C 19.230469 19.640625 19.375 19.789062 19.410156 19.933594 C 19.441406 20.082031 19.585938 20.246094 19.78125 20.410156 C 19.976562 20.570312 19.976562 20.847656 19.929688 21.273438 C 19.886719 21.25 19.847656 21.214844 19.8125 21.175781 C 19.808594 21.171875 19.804688 21.167969 19.800781 21.164062 C 19.667969 21.019531 19.5625 20.804688 19.496094 20.679688 C 19.410156 20.515625 19.203125 20.246094 19.050781 20.113281 C 18.898438 19.984375 18.703125 19.808594 18.59375 19.601562 C 18.523438 19.46875 18.464844 19.371094 18.296875 19.1875 C 18.21875 19.273438 18.140625 19.367188 18.082031 19.460938 C 17.933594 19.710938 17.789062 19.789062 17.703125 19.84375 C 17.617188 19.898438 17.464844 20.039062 17.410156 20.179688 C 17.355469 20.320312 17.28125 20.410156 17.183594 20.441406 C 17.085938 20.472656 16.800781 20.8125 16.769531 20.898438 C 16.738281 20.984375 16.695312 21.117188 16.597656 21.203125 C 16.421875 21.027344 16.402344 20.746094 16.550781 20.59375 C 16.757812 20.386719 16.890625 20.265625 16.964844 20.222656 C 16.976562 20.105469 17.050781 20.082031 17.3125 19.863281 C 17.574219 19.648438 17.628906 19.59375 17.636719 19.503906 C 17.648438 19.417969 17.789062 19.289062 17.964844 19.136719 C 18.007812 19.097656 18.0625 19.050781 18.121094 19 C 18.0625 18.941406 17.996094 18.875 17.921875 18.796875 C 17.433594 18.308594 16.367188 17.675781 16 17.414062 C 15.6875 17.195312 15.152344 17.078125 15.066406 17.011719 C 14.976562 16.949219 14.847656 16.9375 14.738281 16.9375 C 14.628906 16.9375 14.554688 16.9375 14.445312 16.742188 C 14.417969 16.6875 14.382812 16.65625 14.347656 16.632812 C 14.328125 16.722656 14.332031 16.90625 14.339844 17.039062 C 14.347656 17.171875 14.386719 17.488281 14.242188 17.652344 C 14.09375 17.820312 13.839844 18.050781 13.570312 18.117188 C 13.59375 17.492188 13.882812 17.324219 13.929688 17.136719 C 13.96875 16.988281 14.132812 16.71875 14.34375 16.632812 C 14.246094 16.574219 14.128906 16.613281 14.035156 16.644531 C 13.902344 16.6875 13.75 16.652344 13.6875 16.609375 C 13.636719 16.578125 13.566406 16.574219 13.496094 16.59375 C 13.613281 16.660156 13.585938 16.867188 13.414062 16.867188 C 13.285156 16.867188 13.238281 16.746094 13.273438 16.65625 C 13.238281 16.660156 13.203125 16.660156 13.175781 16.644531 C 13.121094 16.605469 12.992188 16.660156 12.863281 16.699219 C 12.925781 16.695312 12.980469 16.691406 13.027344 16.671875 C 13.039062 16.667969 13.054688 16.660156 13.066406 16.652344 C 13.054688 16.660156 13.039062 16.667969 13.027344 16.671875 Z M 11.1875 17.148438 C 11.226562 17.082031 11.265625 17.027344 11.308594 17 C 11.335938 16.992188 11.363281 16.988281 11.390625 16.984375 C 11.304688 17.035156 11.238281 17.09375 11.1875 17.148438 Z M 12.175781 16.71875 C 12.128906 16.734375 12.082031 16.753906 12.039062 16.777344 C 12.03125 16.777344 12.023438 16.777344 12.015625 16.777344 C 12.0625 16.757812 12.105469 16.734375 12.148438 16.710938 C 12.15625 16.710938 12.167969 16.714844 12.175781 16.71875 Z M 14.703125 16.621094 C 14.539062 16.554688 14.246094 16.230469 14.195312 16 C 14.085938 15.964844 13.988281 15.863281 13.902344 15.746094 C 14.175781 15.746094 14.429688 15.789062 14.5 15.988281 C 14.574219 16.207031 14.652344 16.457031 14.792969 16.65625 C 14.761719 16.644531 14.734375 16.632812 14.703125 16.621094 Z M 22.855469 15.414062 C 22.875 15.453125 22.902344 15.496094 22.941406 15.542969 C 22.886719 15.5 22.863281 15.457031 22.855469 15.414062 Z M 11.460938 15.164062 C 11.253906 15.164062 11.253906 15.460938 11.460938 15.460938 C 11.664062 15.460938 11.664062 15.164062 11.460938 15.164062 Z M 12.128906 15.132812 C 11.921875 15.132812 11.921875 15.429688 12.128906 15.429688 C 12.332031 15.429688 12.332031 15.132812 12.128906 15.132812 Z M 22.925781 15.0625 C 22.921875 15.070312 22.921875 15.082031 22.914062 15.085938 C 22.878906 15.136719 22.835938 15.199219 22.828125 15.277344 C 22.828125 15.273438 22.824219 15.269531 22.824219 15.265625 C 22.824219 15.265625 22.824219 15.265625 22.824219 15.269531 C 22.839844 15.171875 22.886719 15.125 22.925781 15.0625 Z M 22.753906 15.207031 C 22.742188 15.199219 22.730469 15.195312 22.71875 15.191406 C 22.730469 15.195312 22.742188 15.199219 22.753906 15.207031 Z M 22.679688 15.175781 C 22.671875 15.171875 22.664062 15.171875 22.652344 15.167969 C 22.664062 15.167969 22.671875 15.171875 22.679688 15.175781 Z M 13.511719 14.726562 C 13.308594 14.726562 13.308594 15.019531 13.511719 15.019531 C 13.71875 15.019531 13.71875 14.726562 13.511719 14.726562 Z M 22.960938 14.984375 C 22.960938 14.988281 22.957031 14.996094 22.957031 15.003906 C 22.957031 14.996094 22.960938 14.988281 22.960938 14.984375 Z M 9.878906 13.183594 C 9.675781 13.183594 9.675781 13.480469 9.878906 13.480469 C 10.085938 13.480469 10.085938 13.183594 9.878906 13.183594 Z M 9.878906 13.183594 "/>
<path style=" stroke:none;fill-rule:nonzero;fill:rgb(100%,80.392157%,32.54902%);fill-opacity:1;" d="M 20.347656 8.746094 C 20.273438 8.722656 20.191406 8.707031 20.105469 8.703125 C 20.117188 8.695312 20.125 8.6875 20.136719 8.683594 C 20.289062 8.746094 20.335938 8.585938 20.277344 8.5 C 20.292969 8.449219 20.296875 8.382812 20.320312 8.28125 C 20.335938 8.222656 20.382812 8.128906 20.445312 8.023438 C 20.457031 8.03125 20.46875 8.035156 20.480469 8.042969 C 20.558594 8.074219 20.644531 7.945312 20.550781 7.859375 C 20.695312 7.644531 20.886719 7.414062 21.066406 7.265625 C 21.027344 7.253906 20.980469 7.25 20.929688 7.25 C 20.949219 7.222656 20.964844 7.191406 20.984375 7.160156 C 21.007812 7.175781 21.035156 7.1875 21.066406 7.1875 C 21.265625 7.1875 21.28125 6.910156 21.125 6.855469 C 21.148438 6.78125 21.171875 6.707031 21.183594 6.628906 C 21.398438 6.609375 21.394531 6.28125 21.183594 6.257812 C 21.160156 6.15625 21.113281 6.054688 21.039062 5.96875 C 21.082031 5.875 21.035156 5.738281 20.902344 5.738281 C 20.855469 5.738281 20.820312 5.757812 20.792969 5.785156 C 20.726562 5.75 20.65625 5.722656 20.582031 5.695312 C 20.621094 5.601562 20.574219 5.472656 20.445312 5.472656 C 20.347656 5.472656 20.300781 5.542969 20.292969 5.617188 C 20.214844 5.601562 20.132812 5.585938 20.050781 5.570312 C 20.109375 5.492188 20.074219 5.347656 19.949219 5.347656 C 19.839844 5.347656 19.800781 5.453125 19.828125 5.53125 C 19.773438 5.523438 19.71875 5.515625 19.667969 5.507812 C 19.675781 5.4375 19.636719 5.363281 19.550781 5.363281 C 19.484375 5.363281 19.445312 5.410156 19.4375 5.460938 C 19.382812 5.449219 19.328125 5.4375 19.273438 5.425781 C 19.257812 5.390625 19.226562 5.363281 19.175781 5.363281 C 19.152344 5.363281 19.132812 5.371094 19.117188 5.382812 C 19.09375 5.375 19.066406 5.367188 19.042969 5.355469 C 19.085938 5.347656 19.121094 5.328125 19.144531 5.300781 C 19.230469 5.183594 19.117188 5.121094 19.003906 5.175781 C 18.890625 5.226562 18.820312 5.09375 18.789062 4.925781 C 18.753906 4.769531 18.691406 4.59375 18.535156 4.566406 C 18.519531 4.546875 18.503906 4.53125 18.484375 4.515625 C 18.5625 4.449219 18.613281 4.351562 18.613281 4.257812 C 18.613281 4.097656 18.539062 3.964844 18.402344 3.917969 L 18.402344 3.75 L 18.65625 3.75 L 18.65625 3.464844 L 18.402344 3.464844 L 18.402344 3.1875 L 18.152344 3.1875 L 18.152344 3.464844 L 17.898438 3.464844 L 17.898438 3.75 L 18.152344 3.75 L 18.152344 3.917969 C 18.015625 3.964844 17.941406 4.097656 17.941406 4.257812 C 17.941406 4.351562 17.996094 4.449219 18.074219 4.515625 C 18.054688 4.53125 18.035156 4.546875 18.019531 4.566406 C 17.863281 4.59375 17.800781 4.769531 17.769531 4.925781 C 17.734375 5.09375 17.664062 5.226562 17.550781 5.175781 C 17.4375 5.121094 17.328125 5.183594 17.414062 5.300781 C 17.433594 5.328125 17.472656 5.347656 17.511719 5.355469 C 17.488281 5.367188 17.464844 5.375 17.4375 5.382812 C 17.421875 5.371094 17.402344 5.363281 17.378906 5.363281 C 17.328125 5.363281 17.296875 5.390625 17.28125 5.425781 C 17.230469 5.4375 17.175781 5.449219 17.121094 5.460938 C 17.109375 5.410156 17.074219 5.363281 17.003906 5.363281 C 16.917969 5.363281 16.882812 5.4375 16.890625 5.507812 C 16.835938 5.515625 16.78125 5.523438 16.730469 5.53125 C 16.753906 5.453125 16.714844 5.347656 16.605469 5.347656 C 16.480469 5.347656 16.445312 5.492188 16.503906 5.570312 C 16.421875 5.585938 16.339844 5.601562 16.261719 5.617188 C 16.257812 5.542969 16.207031 5.472656 16.113281 5.472656 C 15.984375 5.472656 15.9375 5.601562 15.972656 5.695312 C 15.898438 5.722656 15.828125 5.75 15.761719 5.785156 C 15.738281 5.757812 15.699219 5.738281 15.652344 5.738281 C 15.519531 5.738281 15.476562 5.875 15.519531 5.96875 C 15.441406 6.054688 15.394531 6.15625 15.371094 6.257812 C 15.160156 6.28125 15.160156 6.609375 15.371094 6.628906 C 15.386719 6.707031 15.40625 6.78125 15.433594 6.855469 C 15.273438 6.910156 15.289062 7.1875 15.488281 7.1875 C 15.523438 7.1875 15.550781 7.175781 15.574219 7.160156 C 15.589844 7.191406 15.605469 7.222656 15.625 7.25 C 15.578125 7.25 15.53125 7.253906 15.488281 7.265625 C 15.671875 7.414062 15.859375 7.644531 16.007812 7.859375 C 15.910156 7.945312 16 8.074219 16.074219 8.042969 C 16.085938 8.035156 16.101562 8.03125 16.109375 8.023438 C 16.171875 8.128906 16.21875 8.222656 16.234375 8.28125 C 16.257812 8.382812 16.265625 8.449219 16.277344 8.5 C 16.21875 8.585938 16.265625 8.746094 16.417969 8.683594 C 16.417969 8.683594 16.421875 8.683594 16.421875 8.683594 C 16.429688 8.6875 16.4375 8.691406 16.445312 8.699219 C 16.328125 8.699219 16.214844 8.714844 16.113281 8.746094 C 14.179688 9.34375 13.761719 11.714844 14.863281 13.910156 C 15.878906 15.9375 17.117188 16.617188 18.230469 17.015625 C 19.34375 16.617188 20.582031 15.9375 21.597656 13.910156 C 22.699219 11.714844 22.28125 9.34375 20.347656 8.746094 Z M 19.261719 8.933594 C 19.011719 9.066406 18.683594 9.261719 18.464844 9.394531 C 18.433594 9.371094 18.398438 9.351562 18.355469 9.339844 C 18.347656 9.1875 18.324219 9.207031 18.230469 9.207031 C 18.136719 9.207031 18.113281 9.1875 18.105469 9.339844 C 18.0625 9.351562 18.027344 9.371094 17.996094 9.394531 C 17.769531 9.257812 17.414062 9.046875 17.164062 8.914062 C 17.457031 8.957031 17.824219 8.984375 18.277344 8.984375 C 18.667969 8.984375 18.992188 8.964844 19.261719 8.933594 Z M 17.335938 6.324219 C 17.171875 6.492188 17.152344 6.796875 17.328125 7.035156 C 17.1875 6.832031 17.015625 6.703125 16.855469 6.648438 L 17.683594 5.675781 C 17.710938 5.660156 17.738281 5.648438 17.765625 5.636719 C 17.777344 5.890625 17.859375 6.171875 18.03125 6.414062 C 17.949219 6.582031 17.90625 6.78125 17.914062 6.9375 C 17.820312 6.617188 17.613281 6.375 17.335938 6.324219 Z M 16.746094 7.230469 C 16.683594 7.152344 16.609375 7.085938 16.53125 7.03125 L 16.628906 6.914062 C 16.644531 7.023438 16.683594 7.132812 16.746094 7.230469 Z M 19.8125 7.230469 C 19.832031 7.195312 19.847656 7.15625 19.863281 7.121094 C 19.875 7.097656 19.882812 7.074219 19.890625 7.050781 L 19.898438 7.054688 C 19.894531 7.054688 19.894531 7.050781 19.890625 7.050781 C 19.902344 7.019531 19.910156 6.988281 19.914062 6.960938 L 19.917969 6.960938 C 19.917969 6.960938 19.914062 6.960938 19.914062 6.960938 C 19.917969 6.945312 19.921875 6.929688 19.925781 6.914062 L 20.023438 7.03125 C 19.945312 7.085938 19.871094 7.152344 19.8125 7.230469 Z M 19.699219 6.648438 C 19.542969 6.703125 19.367188 6.832031 19.230469 7.035156 C 19.402344 6.796875 19.386719 6.492188 19.222656 6.324219 C 18.945312 6.375 18.734375 6.617188 18.640625 6.9375 C 18.648438 6.78125 18.605469 6.582031 18.523438 6.414062 C 18.699219 6.171875 18.78125 5.890625 18.792969 5.636719 C 18.820312 5.648438 18.847656 5.660156 18.875 5.675781 Z M 19.699219 6.648438 "/>
</g>
</svg>
