<?xml version="1.0" encoding="UTF-8"?>
<svg xmlns="http://www.w3.org/2000/svg" xmlns:xlink="http://www.w3.org/1999/xlink" width="37pt" height="25pt" viewBox="0 0 37 25" version="1.1">
<g id="surface1">
<path style=" stroke:none;fill-rule:evenodd;fill:rgb(34.117647%,65.490196%,38.823529%);fill-opacity:1;" d="M 3.363281 0 L 33.625 0 C 35.484375 0 36.988281 1.527344 36.988281 3.40625 L 36.988281 21.582031 C 36.988281 23.464844 35.484375 24.992188 33.625 24.992188 L 3.363281 24.992188 C 1.503906 24.992188 0 23.464844 0 21.582031 L 0 3.40625 C 0 1.527344 1.503906 0 3.363281 0 Z M 3.363281 0 "/>
<path style=" stroke:none;fill-rule:evenodd;fill:rgb(92.941176%,33.333333%,39.607843%);fill-opacity:1;" d="M 3.699219 0 L 8.984375 0 L 8.984375 24.992188 L 3.699219 24.992188 Z M 3.699219 0 "/>
<path style=" stroke:none;fill-rule:evenodd;fill:rgb(100%,100%,100%);fill-opacity:1;" d="M 19.832031 4.78125 C 19.839844 4.785156 19.84375 4.785156 19.851562 4.789062 C 20.054688 4.863281 20.257812 4.960938 20.453125 5.074219 C 22.328125 6.160156 22.953125 8.566406 21.84375 10.445312 C 21.628906 10.808594 21.367188 11.121094 21.066406 11.390625 C 20.773438 11.664062 20.4375 11.898438 20.054688 12.078125 C 18.082031 13.019531 15.730469 12.195312 14.804688 10.238281 C 14.710938 10.035156 14.632812 9.824219 14.574219 9.613281 C 14.570312 9.609375 14.570312 9.601562 14.566406 9.597656 C 14.535156 9.53125 14.457031 9.503906 14.386719 9.535156 C 14.332031 9.558594 14.304688 9.617188 14.3125 9.675781 C 14.335938 10.3125 14.484375 10.953125 14.777344 11.566406 C 15.9375 14.023438 18.890625 15.058594 21.367188 13.875 C 21.828125 13.65625 22.238281 13.378906 22.597656 13.050781 C 22.953125 12.722656 23.269531 12.339844 23.527344 11.902344 C 24.921875 9.542969 24.140625 6.523438 21.785156 5.15625 C 21.195312 4.816406 20.566406 4.613281 19.933594 4.535156 C 19.875 4.519531 19.816406 4.546875 19.785156 4.597656 C 19.746094 4.660156 19.769531 4.742188 19.832031 4.78125 Z M 15.230469 7.28125 C 15.347656 7.308594 15.355469 7.378906 15.25 7.433594 L 14.859375 7.648438 C 14.753906 7.703125 14.667969 7.851562 14.667969 7.972656 L 14.671875 8.394531 C 14.671875 8.515625 14.605469 8.542969 14.527344 8.457031 L 14.226562 8.128906 C 14.144531 8.039062 13.992188 8.011719 13.882812 8.0625 L 13.4375 8.277344 C 13.332031 8.328125 13.289062 8.285156 13.347656 8.175781 L 13.585938 7.734375 C 13.644531 7.628906 13.628906 7.46875 13.550781 7.378906 L 13.257812 7.03125 C 13.179688 6.941406 13.210938 6.878906 13.328125 6.894531 L 13.78125 6.953125 C 13.898438 6.964844 14.046875 6.894531 14.113281 6.792969 L 14.324219 6.453125 C 14.386719 6.351562 14.457031 6.363281 14.476562 6.480469 L 14.550781 6.914062 C 14.570312 7.03125 14.679688 7.152344 14.792969 7.179688 Z M 13.117188 5.6875 C 13.234375 5.714844 13.242188 5.78125 13.136719 5.839844 L 12.746094 6.050781 C 12.640625 6.109375 12.554688 6.253906 12.554688 6.375 L 12.558594 6.800781 C 12.558594 6.921875 12.492188 6.949219 12.414062 6.859375 L 12.113281 6.535156 C 12.03125 6.445312 11.878906 6.417969 11.769531 6.46875 L 11.324219 6.679688 C 11.214844 6.734375 11.175781 6.6875 11.234375 6.582031 L 11.472656 6.140625 C 11.53125 6.035156 11.515625 5.871094 11.4375 5.78125 L 11.144531 5.4375 C 11.066406 5.34375 11.097656 5.285156 11.214844 5.296875 L 11.667969 5.355469 C 11.785156 5.371094 11.933594 5.300781 12 5.195312 L 12.210938 4.855469 C 12.273438 4.753906 12.34375 4.769531 12.363281 4.886719 L 12.433594 5.316406 C 12.453125 5.4375 12.566406 5.558594 12.679688 5.582031 Z M 15.761719 4.625 C 15.875 4.652344 15.882812 4.71875 15.777344 4.777344 L 15.386719 4.988281 C 15.28125 5.046875 15.195312 5.191406 15.195312 5.3125 L 15.199219 5.738281 C 15.199219 5.859375 15.136719 5.886719 15.054688 5.796875 L 14.753906 5.46875 C 14.671875 5.382812 14.519531 5.351562 14.410156 5.40625 L 13.964844 5.617188 C 13.859375 5.667969 13.816406 5.625 13.875 5.519531 L 14.113281 5.078125 C 14.171875 4.972656 14.15625 4.808594 14.078125 4.71875 L 13.785156 4.371094 C 13.707031 4.28125 13.742188 4.21875 13.859375 4.234375 L 14.308594 4.292969 C 14.425781 4.308594 14.578125 4.234375 14.640625 4.132812 L 14.851562 3.792969 C 14.917969 3.691406 14.984375 3.703125 15.003906 3.824219 L 15.078125 4.253906 C 15.097656 4.375 15.207031 4.492188 15.324219 4.519531 Z M 18.402344 4.089844 C 18.519531 4.117188 18.527344 4.1875 18.421875 4.246094 L 18.027344 4.457031 C 17.921875 4.515625 17.835938 4.660156 17.839844 4.78125 L 17.84375 5.207031 C 17.84375 5.328125 17.777344 5.355469 17.695312 5.265625 L 17.394531 4.9375 C 17.316406 4.851562 17.160156 4.820312 17.054688 4.871094 L 16.609375 5.085938 C 16.5 5.136719 16.460938 5.09375 16.515625 4.988281 L 16.757812 4.546875 C 16.8125 4.4375 16.796875 4.277344 16.722656 4.1875 L 16.425781 3.839844 C 16.351562 3.75 16.382812 3.6875 16.5 3.703125 L 16.953125 3.761719 C 17.070312 3.777344 17.21875 3.703125 17.28125 3.601562 L 17.496094 3.261719 C 17.558594 3.160156 17.628906 3.171875 17.648438 3.292969 L 17.71875 3.722656 C 17.738281 3.84375 17.851562 3.960938 17.964844 3.988281 Z M 16.289062 2.496094 C 16.40625 2.523438 16.414062 2.59375 16.308594 2.648438 L 15.914062 2.863281 C 15.808594 2.917969 15.722656 3.066406 15.726562 3.1875 L 15.726562 3.609375 C 15.730469 3.730469 15.664062 3.757812 15.582031 3.671875 L 15.28125 3.34375 C 15.203125 3.253906 15.046875 3.226562 14.941406 3.277344 L 14.496094 3.492188 C 14.386719 3.542969 14.347656 3.496094 14.402344 3.390625 L 14.640625 2.949219 C 14.699219 2.84375 14.683594 2.683594 14.605469 2.59375 L 14.3125 2.246094 C 14.234375 2.15625 14.269531 2.09375 14.386719 2.109375 L 14.839844 2.164062 C 14.957031 2.179688 15.105469 2.109375 15.167969 2.007812 L 15.382812 1.667969 C 15.445312 1.5625 15.515625 1.578125 15.535156 1.695312 L 15.605469 2.128906 C 15.625 2.246094 15.734375 2.367188 15.851562 2.394531 Z M 16.289062 2.496094 "/>
</g>
</svg>
