<?xml version="1.0" encoding="UTF-8"?>
<svg xmlns="http://www.w3.org/2000/svg" xmlns:xlink="http://www.w3.org/1999/xlink" width="37pt" height="25pt" viewBox="0 0 37 25" version="1.1">
<defs>
<clipPath id="clip1">
  <path d="M 0 10 L 37 10 L 37 16 L 0 16 Z M 0 10 "/>
</clipPath>
<clipPath id="clip2">
  <path d="M 3.363281 0 L 33.625 0 C 35.484375 0 36.988281 1.527344 36.988281 3.40625 L 36.988281 21.582031 C 36.988281 23.464844 35.484375 24.992188 33.625 24.992188 L 3.363281 24.992188 C 1.503906 24.992188 0 23.464844 0 21.582031 L 0 3.40625 C 0 1.527344 1.503906 0 3.363281 0 Z M 3.363281 0 "/>
</clipPath>
<clipPath id="clip3">
  <path d="M 0 19 L 37 19 L 37 25 L 0 25 Z M 0 19 "/>
</clipPath>
<clipPath id="clip4">
  <path d="M 3.363281 0 L 33.625 0 C 35.484375 0 36.988281 1.527344 36.988281 3.40625 L 36.988281 21.582031 C 36.988281 23.464844 35.484375 24.992188 33.625 24.992188 L 3.363281 24.992188 C 1.503906 24.992188 0 23.464844 0 21.582031 L 0 3.40625 C 0 1.527344 1.503906 0 3.363281 0 Z M 3.363281 0 "/>
</clipPath>
<clipPath id="clip5">
  <path d="M 0 0 L 37 0 L 37 6 L 0 6 Z M 0 0 "/>
</clipPath>
<clipPath id="clip6">
  <path d="M 3.363281 0 L 33.625 0 C 35.484375 0 36.988281 1.527344 36.988281 3.40625 L 36.988281 21.582031 C 36.988281 23.464844 35.484375 24.992188 33.625 24.992188 L 3.363281 24.992188 C 1.503906 24.992188 0 23.464844 0 21.582031 L 0 3.40625 C 0 1.527344 1.503906 0 3.363281 0 Z M 3.363281 0 "/>
</clipPath>
<clipPath id="clip7">
  <path d="M 0 0 L 16 0 L 16 16 L 0 16 Z M 0 0 "/>
</clipPath>
<clipPath id="clip8">
  <path d="M 3.363281 0 L 33.625 0 C 35.484375 0 36.988281 1.527344 36.988281 3.40625 L 36.988281 21.582031 C 36.988281 23.464844 35.484375 24.992188 33.625 24.992188 L 3.363281 24.992188 C 1.503906 24.992188 0 23.464844 0 21.582031 L 0 3.40625 C 0 1.527344 1.503906 0 3.363281 0 Z M 3.363281 0 "/>
</clipPath>
</defs>
<g id="surface1">
<path style=" stroke:none;fill-rule:evenodd;fill:rgb(96.078431%,96.862745%,97.647059%);fill-opacity:1;" d="M 3.363281 0 L 33.625 0 C 35.484375 0 36.988281 1.527344 36.988281 3.40625 L 36.988281 21.582031 C 36.988281 23.464844 35.484375 24.992188 33.625 24.992188 L 3.363281 24.992188 C 1.503906 24.992188 0 23.464844 0 21.582031 L 0 3.40625 C 0 1.527344 1.503906 0 3.363281 0 Z M 3.363281 0 "/>
<g clip-path="url(#clip1)" clip-rule="nonzero">
<g clip-path="url(#clip2)" clip-rule="evenodd">
<path style=" stroke:none;fill-rule:evenodd;fill:rgb(27.843137%,34.117647%,66.27451%);fill-opacity:1;" d="M 0 10.097656 L 36.988281 10.097656 L 36.988281 15.421875 L 0 15.421875 Z M 0 10.097656 "/>
</g>
</g>
<g clip-path="url(#clip3)" clip-rule="nonzero">
<g clip-path="url(#clip4)" clip-rule="evenodd">
<path style=" stroke:none;fill-rule:evenodd;fill:rgb(27.843137%,34.117647%,66.27451%);fill-opacity:1;" d="M 0 19.671875 L 36.988281 19.671875 L 36.988281 24.992188 L 0 24.992188 Z M 0 19.671875 "/>
</g>
</g>
<g clip-path="url(#clip5)" clip-rule="nonzero">
<g clip-path="url(#clip6)" clip-rule="evenodd">
<path style=" stroke:none;fill-rule:evenodd;fill:rgb(27.843137%,34.117647%,66.27451%);fill-opacity:1;" d="M 0 -0.00390625 L 36.988281 -0.00390625 L 36.988281 5.320312 L 0 5.320312 Z M 0 -0.00390625 "/>
</g>
</g>
<g clip-path="url(#clip7)" clip-rule="nonzero">
<g clip-path="url(#clip8)" clip-rule="evenodd">
<path style=" stroke:none;fill-rule:evenodd;fill:rgb(96.078431%,96.862745%,97.647059%);fill-opacity:1;" d="M 0 0 L 15.851562 0 L 15.851562 15.421875 L 0 15.421875 Z M 0 0 "/>
</g>
</g>
<path style=" stroke:none;fill-rule:nonzero;fill:rgb(96.078431%,83.529412%,37.254902%);fill-opacity:1;" d="M 12.625 9.257812 C 12.625 9.054688 12.707031 8.746094 12.804688 8.570312 L 13.121094 8.023438 C 13.222656 7.847656 13.222656 7.558594 13.121094 7.382812 L 12.796875 6.816406 C 12.695312 6.640625 12.613281 6.332031 12.613281 6.128906 L 12.609375 5.476562 C 12.609375 5.273438 12.464844 5.027344 12.289062 4.925781 L 11.742188 4.609375 C 11.566406 4.511719 11.34375 4.285156 11.242188 4.109375 L 10.925781 3.558594 C 10.824219 3.382812 10.578125 3.242188 10.378906 3.242188 L 9.726562 3.242188 C 9.527344 3.242188 9.21875 3.160156 9.042969 3.058594 L 8.480469 2.734375 C 8.304688 2.632812 8.019531 2.632812 7.84375 2.734375 L 7.300781 3.054688 C 7.128906 3.15625 6.820312 3.242188 6.617188 3.242188 L 5.988281 3.242188 C 5.789062 3.242188 5.539062 3.382812 5.441406 3.558594 L 5.117188 4.125 C 5.015625 4.300781 4.789062 4.527344 4.617188 4.628906 L 4.054688 4.960938 C 3.882812 5.0625 3.738281 5.3125 3.738281 5.515625 L 3.742188 6.148438 C 3.742188 6.351562 3.660156 6.660156 3.5625 6.835938 L 3.246094 7.382812 C 3.144531 7.558594 3.144531 7.847656 3.246094 8.023438 L 3.570312 8.589844 C 3.671875 8.761719 3.753906 9.074219 3.753906 9.277344 L 3.757812 9.929688 C 3.757812 10.132812 3.902344 10.378906 4.078125 10.480469 L 4.625 10.796875 C 4.800781 10.894531 5.023438 11.121094 5.125 11.296875 L 5.441406 11.847656 C 5.539062 12.019531 5.789062 12.164062 5.988281 12.164062 L 6.636719 12.164062 C 6.839844 12.164062 7.148438 12.246094 7.324219 12.347656 L 7.886719 12.671875 C 8.0625 12.773438 8.347656 12.773438 8.519531 12.667969 L 9.066406 12.351562 C 9.238281 12.25 9.546875 12.164062 9.746094 12.164062 L 10.378906 12.164062 C 10.578125 12.164062 10.824219 12.019531 10.925781 11.847656 L 11.25 11.28125 C 11.351562 11.105469 11.578125 10.878906 11.75 10.773438 L 12.3125 10.445312 C 12.484375 10.34375 12.628906 10.09375 12.625 9.890625 Z M 12.625 9.257812 "/>
</g>
</svg>
